<mxfile host="app.diagrams.net" modified="2023-07-07T01:02:38.976Z" agent="Mozilla/5.0 (Windows NT 10.0; Win64; x64; rv:109.0) Gecko/20100101 Firefox/114.0" etag="C6LGT-zJnenFYF8QxlFx" version="21.6.1" type="github">
  <diagram name="Page-1" id="l84ALblCrEzhkr91W3uj">
    <mxGraphModel dx="1050" dy="530" grid="1" gridSize="10" guides="1" tooltips="1" connect="1" arrows="1" fold="1" page="1" pageScale="1" pageWidth="827" pageHeight="1169" math="0" shadow="0">
      <root>
        <mxCell id="0" />
        <mxCell id="1" parent="0" />
        <mxCell id="zoAzQkcT-fx47Set7v9W-16" value="" style="edgeStyle=orthogonalEdgeStyle;rounded=0;orthogonalLoop=1;jettySize=auto;html=1;" edge="1" parent="1" source="zoAzQkcT-fx47Set7v9W-10">
          <mxGeometry relative="1" as="geometry">
            <mxPoint x="190" y="500" as="targetPoint" />
          </mxGeometry>
        </mxCell>
        <mxCell id="zoAzQkcT-fx47Set7v9W-10" value="" style="rounded=0;whiteSpace=wrap;html=1;dashed=1;" vertex="1" parent="1">
          <mxGeometry x="20" y="120" width="120" height="760" as="geometry" />
        </mxCell>
        <mxCell id="zoAzQkcT-fx47Set7v9W-11" value="" style="image;points=[];aspect=fixed;html=1;align=center;shadow=0;dashed=0;image=img/lib/allied_telesis/computer_and_terminals/Personal_Computer.svg;" vertex="1" parent="1">
          <mxGeometry x="57.2" y="330" width="45.6" height="61.800000000000004" as="geometry" />
        </mxCell>
        <mxCell id="zoAzQkcT-fx47Set7v9W-12" value="" style="image;points=[];aspect=fixed;html=1;align=center;shadow=0;dashed=0;image=img/lib/allied_telesis/computer_and_terminals/Personal_Computer_Wireless.svg;" vertex="1" parent="1">
          <mxGeometry x="48.5" y="480" width="63" height="64.2" as="geometry" />
        </mxCell>
        <mxCell id="zoAzQkcT-fx47Set7v9W-13" value="" style="sketch=0;html=1;dashed=0;whitespace=wrap;fillColor=#2875E2;strokeColor=#ffffff;points=[[0.005,0.63,0],[0.1,0.2,0],[0.9,0.2,0],[0.5,0,0],[0.995,0.63,0],[0.72,0.99,0],[0.5,1,0],[0.28,0.99,0]];verticalLabelPosition=bottom;align=center;verticalAlign=top;shape=mxgraph.kubernetes.icon;prIcon=api" vertex="1" parent="1">
          <mxGeometry x="57.2" y="650" width="50" height="48" as="geometry" />
        </mxCell>
        <mxCell id="zoAzQkcT-fx47Set7v9W-14" value="" style="html=1;verticalLabelPosition=bottom;align=center;labelBackgroundColor=#ffffff;verticalAlign=top;strokeWidth=2;strokeColor=#0080F0;shadow=0;dashed=0;shape=mxgraph.ios7.icons.smartphone;" vertex="1" parent="1">
          <mxGeometry x="64.75" y="210" width="30.5" height="50" as="geometry" />
        </mxCell>
        <mxCell id="zoAzQkcT-fx47Set7v9W-15" value="&lt;font style=&quot;font-size: 14px;&quot;&gt;Clients Externes&lt;br&gt;&lt;/font&gt;" style="text;strokeColor=none;fillColor=none;html=1;fontSize=24;fontStyle=1;verticalAlign=middle;align=center;" vertex="1" parent="1">
          <mxGeometry x="32.2" y="150" width="100" height="40" as="geometry" />
        </mxCell>
        <mxCell id="zoAzQkcT-fx47Set7v9W-17" value="" style="rounded=0;whiteSpace=wrap;html=1;dashed=1;" vertex="1" parent="1">
          <mxGeometry x="310" y="117.5" width="490" height="765" as="geometry" />
        </mxCell>
        <mxCell id="zoAzQkcT-fx47Set7v9W-20" value="" style="edgeStyle=orthogonalEdgeStyle;rounded=0;orthogonalLoop=1;jettySize=auto;html=1;" edge="1" parent="1" source="zoAzQkcT-fx47Set7v9W-19" target="zoAzQkcT-fx47Set7v9W-17">
          <mxGeometry relative="1" as="geometry" />
        </mxCell>
        <mxCell id="zoAzQkcT-fx47Set7v9W-19" value="" style="outlineConnect=0;dashed=0;verticalLabelPosition=bottom;verticalAlign=top;align=center;html=1;shape=mxgraph.aws3.internet_gateway;fillColor=#F58536;gradientColor=none;" vertex="1" parent="1">
          <mxGeometry x="190" y="464" width="80" height="72" as="geometry" />
        </mxCell>
        <mxCell id="zoAzQkcT-fx47Set7v9W-23" value="" style="rounded=0;whiteSpace=wrap;html=1;dashed=1;" vertex="1" parent="1">
          <mxGeometry x="340" y="390" width="120" height="240" as="geometry" />
        </mxCell>
        <mxCell id="zoAzQkcT-fx47Set7v9W-24" value="" style="outlineConnect=0;dashed=0;verticalLabelPosition=bottom;verticalAlign=top;align=center;html=1;shape=mxgraph.aws3.api_gateway;fillColor=#D9A741;gradientColor=none;" vertex="1" parent="1">
          <mxGeometry x="361.75" y="451.2" width="76.5" height="93" as="geometry" />
        </mxCell>
        <mxCell id="zoAzQkcT-fx47Set7v9W-26" value="&lt;font style=&quot;font-size: 15px;&quot;&gt;API Gateway&lt;br&gt;&lt;/font&gt;" style="text;strokeColor=none;fillColor=none;html=1;fontSize=24;fontStyle=1;verticalAlign=middle;align=center;" vertex="1" parent="1">
          <mxGeometry x="350" y="590" width="100" height="40" as="geometry" />
        </mxCell>
        <mxCell id="zoAzQkcT-fx47Set7v9W-29" value="" style="image;sketch=0;aspect=fixed;html=1;points=[];align=center;fontSize=12;image=img/lib/mscae/WebAppWordPress.svg;" vertex="1" parent="1">
          <mxGeometry x="65" y="770" width="49" height="50" as="geometry" />
        </mxCell>
        <mxCell id="zoAzQkcT-fx47Set7v9W-32" value="" style="rounded=1;whiteSpace=wrap;html=1;strokeWidth=2;fillWeight=4;hachureGap=8;hachureAngle=45;fillColor=#fff2cc;sketch=1;strokeColor=#d6b656;" vertex="1" parent="1">
          <mxGeometry x="500" y="536" width="80" height="60" as="geometry" />
        </mxCell>
        <mxCell id="zoAzQkcT-fx47Set7v9W-33" value="" style="rounded=1;whiteSpace=wrap;html=1;strokeWidth=2;fillWeight=4;hachureGap=8;hachureAngle=45;fillColor=#f8cecc;sketch=1;strokeColor=#b85450;" vertex="1" parent="1">
          <mxGeometry x="660" y="370" width="80" height="60" as="geometry" />
        </mxCell>
        <mxCell id="zoAzQkcT-fx47Set7v9W-34" value="" style="rounded=1;whiteSpace=wrap;html=1;strokeWidth=2;fillWeight=4;hachureGap=8;hachureAngle=45;fillColor=#1ba1e2;sketch=1;" vertex="1" parent="1">
          <mxGeometry x="660" y="510" width="80" height="60" as="geometry" />
        </mxCell>
        <mxCell id="zoAzQkcT-fx47Set7v9W-36" value="" style="rounded=1;whiteSpace=wrap;html=1;strokeWidth=2;fillWeight=4;hachureGap=8;hachureAngle=45;fillColor=#008a00;sketch=1;strokeColor=#005700;fontColor=#ffffff;" vertex="1" parent="1">
          <mxGeometry x="492" y="354" width="80" height="60" as="geometry" />
        </mxCell>
        <mxCell id="zoAzQkcT-fx47Set7v9W-37" value="&lt;font style=&quot;font-size: 16px;&quot;&gt;compta&lt;/font&gt;" style="text;strokeColor=none;fillColor=none;html=1;fontSize=24;fontStyle=1;verticalAlign=middle;align=center;" vertex="1" parent="1">
          <mxGeometry x="650" y="430" width="100" height="40" as="geometry" />
        </mxCell>
        <mxCell id="zoAzQkcT-fx47Set7v9W-38" value="&lt;font style=&quot;font-size: 17px;&quot;&gt;course&lt;/font&gt;" style="text;strokeColor=none;fillColor=none;html=1;fontSize=24;fontStyle=1;verticalAlign=middle;align=center;" vertex="1" parent="1">
          <mxGeometry x="484" y="305" width="100" height="40" as="geometry" />
        </mxCell>
        <mxCell id="zoAzQkcT-fx47Set7v9W-39" value="&lt;div style=&quot;font-size: 16px;&quot;&gt;&lt;font style=&quot;font-size: 16px;&quot;&gt;ms-n&lt;/font&gt;&lt;/div&gt;" style="text;strokeColor=none;fillColor=none;html=1;fontSize=24;fontStyle=1;verticalAlign=middle;align=center;" vertex="1" parent="1">
          <mxGeometry x="650" y="570" width="100" height="40" as="geometry" />
        </mxCell>
        <mxCell id="zoAzQkcT-fx47Set7v9W-40" value="&lt;font style=&quot;font-size: 16px;&quot;&gt;ms-1&lt;/font&gt;" style="text;strokeColor=none;fillColor=none;html=1;fontSize=24;fontStyle=1;verticalAlign=middle;align=center;" vertex="1" parent="1">
          <mxGeometry x="490" y="585" width="100" height="40" as="geometry" />
        </mxCell>
        <mxCell id="zoAzQkcT-fx47Set7v9W-41" value="" style="rounded=0;whiteSpace=wrap;html=1;dashed=1;" vertex="1" parent="1">
          <mxGeometry x="340" y="140" width="440" height="150" as="geometry" />
        </mxCell>
        <mxCell id="zoAzQkcT-fx47Set7v9W-42" value="" style="sketch=0;aspect=fixed;pointerEvents=1;shadow=0;dashed=0;html=1;strokeColor=none;labelPosition=center;verticalLabelPosition=bottom;verticalAlign=top;align=center;fillColor=#00188D;shape=mxgraph.mscae.enterprise.database_server" vertex="1" parent="1">
          <mxGeometry x="368" y="205" width="41.8" height="55" as="geometry" />
        </mxCell>
        <mxCell id="zoAzQkcT-fx47Set7v9W-43" value="" style="sketch=0;aspect=fixed;pointerEvents=1;shadow=0;dashed=0;html=1;strokeColor=none;labelPosition=center;verticalLabelPosition=bottom;verticalAlign=top;align=center;fillColor=#00188D;shape=mxgraph.mscae.enterprise.database_generic" vertex="1" parent="1">
          <mxGeometry x="480" y="200" width="44.4" height="60" as="geometry" />
        </mxCell>
        <mxCell id="zoAzQkcT-fx47Set7v9W-46" value="" style="rounded=0;whiteSpace=wrap;html=1;dashed=1;" vertex="1" parent="1">
          <mxGeometry x="340" y="698" width="440" height="150" as="geometry" />
        </mxCell>
        <mxCell id="zoAzQkcT-fx47Set7v9W-53" value="" style="sketch=0;aspect=fixed;pointerEvents=1;shadow=0;dashed=0;html=1;strokeColor=none;labelPosition=center;verticalLabelPosition=bottom;verticalAlign=top;align=center;fillColor=#00188D;shape=mxgraph.mscae.enterprise.database_server" vertex="1" parent="1">
          <mxGeometry x="580" y="205" width="41.8" height="55" as="geometry" />
        </mxCell>
        <mxCell id="zoAzQkcT-fx47Set7v9W-54" value="" style="sketch=0;aspect=fixed;pointerEvents=1;shadow=0;dashed=0;html=1;strokeColor=none;labelPosition=center;verticalLabelPosition=bottom;verticalAlign=top;align=center;fillColor=#00188D;shape=mxgraph.mscae.enterprise.database_server" vertex="1" parent="1">
          <mxGeometry x="708.2" y="205" width="41.8" height="55" as="geometry" />
        </mxCell>
        <mxCell id="zoAzQkcT-fx47Set7v9W-55" value="&lt;font style=&quot;font-size: 15px;&quot;&gt;Bases de données&lt;br&gt;&lt;/font&gt;" style="text;strokeColor=none;fillColor=none;html=1;fontSize=24;fontStyle=1;verticalAlign=middle;align=center;" vertex="1" parent="1">
          <mxGeometry x="500" y="140" width="100" height="40" as="geometry" />
        </mxCell>
        <mxCell id="zoAzQkcT-fx47Set7v9W-58" value="" style="rounded=1;whiteSpace=wrap;html=1;strokeWidth=2;fillWeight=4;hachureGap=8;hachureAngle=45;fillColor=#1ba1e2;sketch=1;" vertex="1" parent="1">
          <mxGeometry x="450" y="752.94" width="310" height="60" as="geometry" />
        </mxCell>
        <mxCell id="zoAzQkcT-fx47Set7v9W-72" value="" style="edgeStyle=segmentEdgeStyle;endArrow=block;html=1;curved=0;rounded=0;endSize=8;startSize=8;exitX=0.025;exitY=0.367;exitDx=0;exitDy=0;exitPerimeter=0;endFill=0;" edge="1" parent="1">
          <mxGeometry width="50" height="50" relative="1" as="geometry">
            <mxPoint x="572" y="410.02" as="sourcePoint" />
            <mxPoint x="610" y="700" as="targetPoint" />
          </mxGeometry>
        </mxCell>
        <mxCell id="zoAzQkcT-fx47Set7v9W-69" value="" style="edgeStyle=segmentEdgeStyle;endArrow=classic;html=1;rounded=1;endSize=8;startSize=8;entryX=0.5;entryY=1;entryDx=0;entryDy=0;entryPerimeter=0;" edge="1" parent="1">
          <mxGeometry width="50" height="50" relative="1" as="geometry">
            <mxPoint x="575" y="397" as="sourcePoint" />
            <mxPoint x="595.9000000000001" y="257" as="targetPoint" />
          </mxGeometry>
        </mxCell>
        <mxCell id="zoAzQkcT-fx47Set7v9W-76" value="" style="edgeStyle=segmentEdgeStyle;endArrow=block;html=1;curved=0;rounded=0;endSize=8;startSize=8;exitX=1;exitY=0.633;exitDx=0;exitDy=0;exitPerimeter=0;endFill=0;" edge="1" parent="1" source="zoAzQkcT-fx47Set7v9W-33">
          <mxGeometry width="50" height="50" relative="1" as="geometry">
            <mxPoint x="735" y="408.02" as="sourcePoint" />
            <mxPoint x="773" y="698" as="targetPoint" />
          </mxGeometry>
        </mxCell>
        <mxCell id="zoAzQkcT-fx47Set7v9W-78" value="" style="edgeStyle=segmentEdgeStyle;endArrow=block;html=1;curved=0;rounded=0;endSize=8;startSize=8;endFill=0;" edge="1" parent="1">
          <mxGeometry width="50" height="50" relative="1" as="geometry">
            <mxPoint x="580" y="552" as="sourcePoint" />
            <mxPoint x="595" y="698" as="targetPoint" />
          </mxGeometry>
        </mxCell>
        <mxCell id="zoAzQkcT-fx47Set7v9W-79" value="" style="shape=image;verticalLabelPosition=bottom;labelBackgroundColor=default;verticalAlign=top;aspect=fixed;imageAspect=0;image=data:image/png,iVBORw0KGgoAAAANSUhEUgAAAeYAAAH8CAMAAAAzAPwAAAADAFBMVEUAAAAkJCQlISEjHiEjHyEjHiAkHyEjHyAjICAjHyAjICAjICAkHx8iHh4kGyQjIyMjICAiHx8jHyAkHyAjHyAkHx8gICAkJCQjHiEjHx8jHyAjHyAkICAhISEnHx8jHyAjHx8kHyEkHx8mHh4jHiAjHyAkHx8jHh4zMzMiHiAiHyAjHx8oGxsjHx8jHyAkHiEAAAAcHBwiIiIjHiAjHx8jIyMjHyAhISEjHyAjHyAjHyAlICAkHyAjHyAhISEgICAjHyAjHyAhISEiHyEAAAAiHx8jHx8jHyAiHiIkHyAjHyAkHyEjHyAjHyAiICAkHiEkHiEjHx8AAAAjHyAjHyAjHiAkICBAAAAkHyAjHyAeHh4jHx8jHyAjHCMjHyEiHiAjHyAiHx8iHx8jHx8iIiIiHyAjHyAhHiEiICAjHx8mHBwjICAjHyAjHyAgICAjHyArKysgICAjHyAjHx8jICAhHSEkHiEjHiAjHyAjHyAjHyEiHyEiHyEiHCIiHyAkICAjHx8jICAkHx8iHCIjICAkHx8mGiYjHx8nHR0jHSMiHSIkICAkICAkICAkHiAkHx8jICAjHyAaGhoiHiAkHx8jHyAhISEjHh4gICArFSsiHiAjHyAjHyAjHyAnJycjHx8kHh4kHR0jHyAjHx8jICAjHyEkICAjHiAjHyEjHx8jHyAjHyEkICAiICAiICAjHx8iHx8jHyEiHiAjHiEcHBwkICAjHiAiHiAiHx8jHyAiHiIjHyAiHyEiHiIjHx8lICAkHiEjHyEjHyAiHx8jHyAjICAjICAkJCQhISEkHSEjHiEkHyAkHyAiICAjICAjHiAjHyEiHSIjICAjHyEkICAlHx8jHx8jICAjHiAjHyEjHyAuFxckHiAjHx8iHx8kHyAfHx8jHx8jHiAkICAjHyEjHyAjHyAjHx8kISEiHyAjHyAjICAjHx8jHyAjHx8jHiAjHx8iHiAjICAiICAjHyAkHx8iHx8iICAiHyAiIiIjHyAkHiEkHiAkHh4jICAjHyAvGh+CAAAA/3RSTlMAFT5lhZikr7GmmYlqQxwdYKPm7a1rKA5eu/7WgB8h9vusMSKf+rMzBW/0ohM651QBCQ+wyxbOL9nu4TfQ7CcIwN0XlQNLe9RE1/Bk8bVpXF2KAtj8qEcEpfIRUa4kfcHvUkrrHt7VRXjTG6HR5SDoBhj9QUg9Vpf1vcyNlC3PP5NYMiWRchSbGiw1T3mBh2PCxwq5evcuOxAMd7+2vg1CKyPN41B1QG7E8+l8umhhi2KMhmYSiOJ/q+A8+ZxMczBVvOpb+NLKBzZObZaesqp2bDRntHEp26mghMYLj5panRlJuDh03+SDRsjcX5LFgtrDfldwpzlTWY4mt03JKpB0v0NpAAAlUElEQVR42u2deZxN9f/HL9os2b80E8bSMNm6I9IkRjXWbI3JIMsVKbKMCREilYbSYokRg6JQZE3fqGSJVEq2NImiVaWNSt9+52cZzJjX+7Occ+/9nDnezz/n8Xm/z/v9ec0999zz+Xzeb5+PYRiGYRiGYRiGYRiGYRiGYRiGYRiGYRiGYRiGYRiGYRiGYRiGYRiGYRgj5Mtf4KKLL7n0soKFChe5vKjpaJgQUKx4iZJWDkqV/k8Z01ExwaTsFRGRFuLKcuVNx8YEiQqFoiySipUqm46PCQJVroq2hERWrWY6RsYhMVdXt6RE1qhpOk7GCbWulIt8ktrXmI6UsY3/6mg1lU9QI9Z0tIw96lyrLPIJ6vIzd56k3nU6Kp+4cdc3HTGjT/nr9VS2rLhapmNmdCl6g67KllW9gemoGT3K3qivsmU1bGQ6bkaH+MZ2VLasm242HTmjwS32VLasxgmmQ2eUaRJpV2arqenYGVWKNrStslWRH7fzCpfaV9mymsWYDp9RorkTlS3ratPxMyrEtHAmc0t+2s4L3CqQsFXrwm3atmtzW+tWgkG3mc6AkZPYnpIv6fYOZ38uJTfvSK5edepsOgdGyh2Uel265hxYoSA1spvpHBgp3bF0gR65h97ZE48tye9I3E4v/Gbkrq5ocLHeWOe7TWfBSLgH6tanLx5dE28iutd0FoyEfki2/uQRiwED4UNYiuk0GCGD0D079T7aYDC8yQ8xnQcjZCgS7X6RxVX8rJ33QCuQnYS7sAcNAybDTefBCHkAaDZCbDISmLQynQcjpBPQTHLucRS6aw8ynQgjYBBQ7EGZEfpRNdp0JoyAIfr3bJ9vDDAqYDoTRkAPoNhDMqMrgNE9pjNhBLQDio2VGdUCRheZzoQRUAQoVkxm9DAwesR0JoyAR4Fi42RGfYHRY6YzYQSgT3OazKgrf5rzGOhparzMaAJ/N+cx0JP24zKjh4DRE6YzYQSg380TZUZPAqOnTGfCCEBvwZ6WGT0DjPKbzoQRATbmpvYVm6SlApn5nbarQStUktNvTwATXqFyN2hVceAkkUVsbWAy2XQejBC4e0T4ENYNWUwxnQcjBO4Fm/osbVAGbR6xppnOgxEDa460mE4NT4c7QeNSTKfBiJmBZLOei8ejE2bC4fxG2+30SoXCzcpAg+OJA++zTWfByCBqCF05J/fQuc/jsS8k2rhujB0jxi7zsHTW1HLn/a6Kv4eqwTxf64JlX3zpsQXt404aLuw9s1CRysmmp+BCIJGsrbzo5Ww7DIo+UZIaFyirfrXxMxrnOidd/ZXFXPAg5CyxSFLrvrpkdrVqs5cueyCVHrVc9UoZK+oSLpIaP8Sf6dCS3MxyRM+VatdZuWqhyM1r8zPU/DD2mO1M5sVKF0lf3VLmaOAKPg4fSl53ovKDStrc/V8VX/3eMD0VXiatp4oGmDUqbWymr1WsFpl0EReTCx1v2q/Z+ZaC+7eVPsqnqVvF9GR4mEfsqjzZL3e+TqHn0Tka8pH4kJHyjj2V2ys0pGqqeauI4uZHISNDs5/JadZ3lXueoe01dYPp2fAuaRrfn2dYqPD4Vc7Gf0/FO0zPhnepcJOuGgGFUtqL7dwkrI2Xm54N75K2SU+Lkm/LfY5Wb1OXg4bcyyxkZGh1lXu3r9xjeds/yOtuNj0b3iWxqfqH72KFHpGJz9lV2bLGmJ4ML7NFsbXcwPdUvG21r7KVyj00Qkh8tygFCd5XqqA9d5jcFU2zFNNz4WkGfFBRIsCHCs9eJ9nmRGXL+sj0THicrvcLFoajb5+g6GaC/Rflp+jJ688hps7HC7BGm5pKaxmcZTit4KKrlm5Pq9O5/IuPfjiVHsVnpkNPsU+2xeWc9WE7du7ScLCdlG/BvGwbgjKK7KbGNeSPczg47z3lHj3rTwnxXph33sCYlzoRQ9X2pTDOcCTzOOJuvA1sA61C7AR81/QMXBA4kvklrNxePxo8iXj/Nsr0FFwIOJIZP4DtJUan7IDDC5ueggsBJzKvhD++X/dT49P7oPH9TE/BhYATmTcg1V6rQxvM2QgMIrmkSehxInMhJPM8kcVqZNHO9BxcADiRGZ3k+ExokY4WLUeanoMLAAcyZ6IjV5KtfBOBSWPTc3AB4EDmykCyhpLDcBXA+9WepufgAsCBzKisp7TDICqDks/0JHgfBzK/BRRbIjP6HBjNMT0J3seBzKuAYs/KjIoDI64FGnIcyLwPKCataTAaGM1TuRrjBAcyg0aSa6RGzwKZvzA9Cd7Hgcz35hZsmNRoPJCZz1OFHAcy788tWKq0uMgWILO0VD/jFAcyjwCKHZAZoY4MX5qeBO/jQGZUpld6LuoeYFTZ9CR4nulrc874ZRpl+VARKukOvi7ASNoUi3FA3wIl2ud699hq+JNNJqnZjwaKNZbYpIBSQ/LnNsYuXcs9T26xjtqxWKFAgS8NmCb1Ets8Dmx4X0GIiL+isWQb/cZtg+U1olDlx71ik6+AyVrT0+FNMubXthTYfWuKxNFlwKqlsBzgQfTftcL0hHiR+CmlVEQ+yQsfiwt4HUJG+wQGiZ8hC8XTWowG675WFfkkV3YQ+ZqDTCLvpg3g/8U3ftNz4jl6adeMuuwA7S0+gCx6VqDG3wcP0L9velI8x7o4S5tAW8pb8xbYYjdRyaIyvnpz07PiMTL36It8khLwd/TcqqTB17Bt8GBcnbc/F/AMKhX6WTZ5MHfJn0nfCg6zWp1uzWUQMzEJj11tel68xRsOKvCuP39/Rw9ZHbmnc1YV8c+jyrZHHzA9MZ7iO0c1QqY2ye6r0WQFk+/bnD0MX/7q3uSwGqYnxlO8t1FBGQFr1p11lb5qjaLR7tdHTJmy7PUfRH655HIQeUhWUUZK0uEzrr5x6io7P5qeGS8x2+Fn+STRg096mjMrmCJbgXqmp8ZDjA84F8Syhh30ZZZTvV8rcoXpqfEQaf2Do0ntl5SWPDTYYXpqPERicO+zQWS9emEqRkY353qEhugXTU+Nh3jD8UN2qPjE9NR4iElaC4+2qFr/JztmT5qeGi/xs9KUR8bF2S2+eeROn6/O8/p2XEAoiHSdKpvu3mM2VDtVUDFj7BePaDcMXTgj5aRt519YZZO0Fk/21+XOe9lYvptO05PIjmeWlmMv1RI5+j+mJ8ZT3Cec7CvbgSNPCV/0VtTKejBbbzj/r6mqZid+SfEzdlB5RTDXC98izrUlXN1JRatSRXJu8e2g/BbmnV4KoTPKbBfM9feC9kDFFkilSro/1479zjWUHuNarfCbnhePUZqe7JEpIsOYzyVaLYDH24YoPHGXLmZ6VrxGBfrrspvM9pDok9m/rR9bJf4m3okU+VwH2YUZXV4mp3uG3Pgt0ji6sKCivf/OD5Mow04jy5ieEi9C9pt6RMWabPdcXXJisu/v3YHSnf64RvGkJaNFA0qn4UqHmBPJrfvyXq3Tvyw3c/fZzffD+uz5/WCK6enwKtTHcf0BNfu09YSDEmr2CcUqH23efEL9m01PhLchDkVYyg2yvyAcBFJMp8ac5QAh0i9+ZReNCRdvmM6NOQv1WdRov3mQcMEt/9zDY1iixjo+umMf15rOjTkL0Xf9mI6PedjHIr/p5JgsEvFKcyBex0kKcVKWX1i6hQpYoKv0vOzHXkabzo7JogMWqK2elz+xF2l1dCZMbA3K7TYNe/nWdHZMFnuhPqV03eCDFtKWFkyYwK86P9N1g/fyXWo6OyaLD6A+BXXd1IBuIkxnx2TxOtTnYl03I6Gbn0xnx2QxE+ozQtfNKuiGq6m6hQ+hPn/punkVuqlrOjsmi4LBuWnfD908Zzo7Jot9UB+9busnuB264fPnbuEvqM8Dum4egG7+MJ0dk8WvUJ9Wfj0vflyBkVsuu4W2UB9LcwvtLuzlUdPZMVlswQJplqL/BHvhro5uoTMWSPM1ZRfsRdrYlQkXePvtxuk6PurgvQlJmaaTY85AHHrVumvfin08aDo35izECar2Gn3j/MSJdn7Qdg9vYIl0Hp+IHX+6W1CYELI5ivg4p6h6SGlPyDzAdG7MOSIIkQ6pOjhEOOhjOjMmGysIlaLmqNnPIW4H1kQF4+SxG6YUah0RUTei4Jimj1fwm54M79KZqoq8KVbFPJbYz29Z9SWW/i0/z6qe06TVjiJcBz9EXEvp1EXhaTuxC2UdyBAa7hpB1M/ftFXrNzujyFBKKGukX2brH0Ma06VHTpg16U7bWVFX/W16TjxICt2WYr+kbW/yB5aIBWOx2Zc3WmIqPlbU9Kx4j0P0fLcWNuAd95VErtRC43JbPXzckjN1BJcgCTJlBU0u/is4i/7iC3K54raeVyQwcWeUgsonOHLU9Lx4jeWiD+Q+4gNd71O1osub7sthpd5rIWmvvNM7o8E4YYvXlt/WzG1S77aFynptO1d8c4vCDeAcVTM0kmCkbBVP99Q/vsxx3nnS46W1WlYN65b1E7yJZm/CTeXtZMMQJG+STXhUxEVtDzZKK1qmVvEnG+u3JbvrVJGwDdoNNf7L78WDyRt2mxsoM2u873EbbVNuqOA8OeYsa0MtsxV9r63ehD+Mc54cc4bMFnY0CAe/pJieGy8xStrVxBS8CSWYXG1aTpJ1pqfGU9wSHFFmjVJ5malDT67aGkQS9LoHEfSr4/P9c1dwdeZygcEk83/OFbnp1CcvtlxUUHW+2/TUeIp8fZzq8ULXLFcDKgVT5uf9pqfGU9Ss60yOH7K9zLhcsR9ZyW1N2x77p/i3l7UUDHrI9Mx4izry1lICmh3I7ivm94DUouXn2/1nxid/t4dsc9Lbr5kIIyS2o32VZ56/iavefnGrwI2r6uQ0KDOTGjrb9MR4DP8MjS6O2YlcBZaHJ3wv+vCDvZ/tiI6EpU3Pi+f4TrmLY3Z69oDO/MVrUxYz4WryHNwwvOIg09PiOVbu0Ve5KilD2RH4G3dmCh5fHv/o/sT0rHiQoVqbPCyr9mGBs+lw/fFGckvfv63gf4XpOfEimd9qrGSsKVxW5GsdsqnelTaA1bk38oahUNBrpKLQGwtJzsPApWzhQbyqyILfhIWGQYVLyUWOW5Ym89MMmH2dIrL4F32bNzU9H55l89CvhL+uUiP+lLc+yUCaLRbboEWUy0zPhpepV3wb8RKyU+mnDqh4QM3Iqku+aL8ENq+ZngqPk/x2gX3nHbOqvX/x9hhF8w1AstclNingNWmq6gUZ23yec8r3aZh2AzLfKjNCh3F5L2/IcSDzj0CxsTKjJ4ARdxYNOQ5kvhcoJj3teAwYvWd6EryPA5nBU/NCqVEtIHMPhYsxjnAgM6hasV5qVBnIvM70JHgfBzKD3UItpUboVxjvIAk5DmQGLaoipS9V3gQyf2l6EryPA5lHAMV2yYxQJdEJpifB+ziQ+R6gWDuZEXrbyb+bQ44DmVE9Kll7aD/YwJKk1TmcsYMDmZ8FMveUvLicBmzam56DCwAHMsdGA83+FNt8Cky2mZ6DCwAHMvvQkZ3rhHUii6IyorzeHHqcyAw7mrUTWaD3o9YQ03NwAeBE5juRaD0FG3K/Q4VQWvI6ZOhxIvNmuMN+Filb0UVofBfTU3Ah4ERm3zYkm3UV8fVcEx/LLG56Ci4EHMn8G9TNujcFDS7aDw7ulG56Ci4EHMmcMhDr/HTf3GPvJk72PGZ6Bi4E6pXOOek76mmZT8TSWYEiKTkHHviAKkPXwPQUeB3/0b9655r8yGbLGviVXaRFE+JZd+3Md+5CW/ZFUeNmmZ4Fj3Og2w3U1H89RbnCz0iLJOmZV4t3mNZ86IxKdJF+y8pveh48TZWrogVzb61Zq7hqVK+T5Qj+MIeQmvdHy+Z/zciVSq66qYhJf+K5UH7I8D/VUEWCnkv9Cs5iHZUEXWZ6LrxLvstURfjqgIK7sdIbA831Sn3PGBtMq60uw0CVVYW9tlWuyPvwQ8USrdrXawrIPcYMtyvzTtOT4Vnm60qxSu5z5RF7Kl9iejI8i43n4sJyr2Xi9N1a1i/8xRwiPrEjxwy538pKj+45+b6s3C9jh2NJ+mpYVmQ7uWd9nety99cQcdBmN4To++S+R32t53MHlw8KEdM1lTjHQIVCfDXf0fFYKFnukbFFaR0dcnLcL3ef/Jdyx6uW7UzPhXdZYl9ly/pY5Qr5d6s5m9VLxRtjh87rncgcUFqZnPSjQo3fkksTVXwxtnDYvUZ2NiqLfytJ7tzV9/LWrxAyR/xbqmJcnFifyGqKFxpbQvA83/8etdVNxiaX0HPfYnmHoidG+HsNXnUlPUq9unnnrQ/Af5moSutSTE+Dx6lAtWSN/LBW9nEHu1Af6lTpAfVs3HxFxx9yfE1HPzDyN75bhxxqy9b1ud58TKNaGX2gecn0BsXfWl7oBE++9N7b/Po6HGwm1hZuB5+w2P14bPVM01kwEo5h5d7HP21m4NFtTWfBSMA9IpdTw1fD4cdNZ8GIiY9Csl3qJw3gEbhofoZyN6ORaiVr0gbT4Qb6wabzYISU0/6q/QJZKOwXYgwyC2jWxy+y8KM2Fp+ZzoMRgooELBGbLAUmrUznwYiYDiQbJnmeKoue2rjNn5tpABT7UGY0GRiNNp0JIwCVjjgkM2oKjA6rXI0xRAGg2Hcyo3nAaKvpTBgBO4Fif8uM6gOjKaYzYQT8audpqgIwWq5yNcYQ6O1IPplRUWCkcM6GMcYhoFh5mVEZYNTNdCaMgDZAMWkxiNnAiA+qupm2QLElMqPFwEjaGZAxSH6gmLS2HmhLw/20Xc0goNhrkj3xiWgpkluPuJpWQDLJi8vRwGQqH5dwNc8AzST7rtH+kQdN58EIKQw0S60vsoCHNB4xnQcjBDYreFpwC/ZHIAtuzOpuysIzF/Npg4/R+MhxpvNgxKDFYyu6AzV8NKwd9rTpLBgJh5Fs1kKiyF79ABzexnQWjAS45ceyht2BBndoCQdH8z3b9cA2Xye+bj/PdTAqfjlRcaCS6RwYKeOp86w3HM7RNSrhix+IgdYW0zkwcqpS6lmvXbQ94fSYxGoT6ZpSXMY+L1BLVHOi5TMFC71f4qeAYIh1uekMGBUKWo641nT8jBJ9FzpReePDpuNn1NCupJ2diaajZxRJtF3E3rLqppiOnlGlb0+7Ki+U7upm3EMTW+W0LStyqOnIGR1sFcdXKo/PuIkn7ah8semoGU38HfVV/jDBdNSMLgkX66rcMcb5VZmwo9kD7i+/6YAZW8wLqIscxecs8iwP36iqcu9/TcfK2Cfm6uoqIkc/wsVY8zZzZ8pVfqeR6SgZx9SqKm56sOAf0xEyQWHLp+TS5LAS00xHxwSN9MOtgdLVjy/lJp0eI2bI6kq915xReM2VpSeOTjEdExMakns9W6tDh2nPlufGjQzDMAzDMAzDMAzDMAzDMAzDMAzDMAzDMAzDMAzDMAzDMAzDMAzDMAzDMIwXSOzcq8r4atVMh8GEhoS/r1m9r+oD/U8X+K1tOhwmBIw/dF5lC5bZ56uGKrq8bToq29z8xKZc2eSUeTxKuLLpuEONp2QuPzIKZMMye0rmmBlTYbUpltlLMv/bjCgqxjJ7SOa7yTq+LLN3ZP6tosUy03hE5vwbLZZZgDdknhtnscwivCHzKxbLLMQTMhe3WGYxXpA5fhHLLMELMq+wWGYJHpDZ35tlluEBmYcIJK6++/uIPTlGs8x5VOZVhMSRr7T7259rNMucR2Xuh1U+jhvdsMx5U+a+uOPNbX48nGXOmzK/CVUuQQ1nmfOmzIdQBj07U8NZ5rwp81qUwa/kcJY5b8q8AGXQixzOMudNmduDBFrQw1nmvClzf5DAJfRwljlvytwKJFCOHs4y50mZ/UkggY/p8SxznpR5M0pgKT2eZc6TMsejBNrR41nmcMlcLP/gdU9tXbFi3YtlYh07ywsyFx0SxIRtEV6Zk7d8tOfB6tmulPrDtfccddTX1d0yJ0yYv+e6HAnf5DRhW4RR5ppFdnRCV7PiavxjP3EXy1yzTdVWMOFAjffCrLS2zP4REZhuwutsvuayNRZN/4n5so/+Dfjvkn3A72f/PBy5a5bd0OG2Av8yIuHVwoRTelwrTPjnetlHrwP+LzUp85NE3NfVERhl7vzGklB92cpz42eAAaWyOywkc5cNh5uELiLc3jhdYDTp9xdkYQ0bkS1htP4SMChzESLoIzfTNukv91SRo+EnfhfK3IbwunsQbZM5Zb1KYKXanE3YZTL/k4Qj/mYAfYl//qsqyCsHXCfzm8TZrP4VBAl/rRpaRJorZa4VhcNtOIe8QJXWGooMHOwymY8SCZcaTyY8oKpGbIvudKHMXYl70bBapP87WmokbVmRj7pK5rnERv9h08iE5wUsHSLfcp3M+XbjUNcMprxvfkQr55OscpHM+Y5gj9FfUgknr4q0NFnlMpkznsdxJl1DOR9UV1tly7rNNTKnP0AkPJRKuN73NhJe5iqZY77CUUYWoHyXP2Ijacta7BKZY44TCa+gEu7V3rJDGxfJ7L+KCPIjynUZ6U9HTPR9rpDZ/wHh7x4q4UY32Eu44mz3yLyXiPE2yvMupR/LiPXj3CDzz4S7ZVTCf4sPZgroWc8tMlOnDu/1E44PKP94BE5dIHMBwlsNKuFxR+wnfIlLZH6PeC1SOoHwSz2vKRE5GfwxvDJT74EupdYcMt91kLCFEg6/zAeH4eje2Uy4TdR5KaJGWGVuQCQ8K55I2H9t0BMOu8zUW4J3Myi3bwU96bDKPHcgdkUvV7wU/ITDLTP1luBIPcrr+KlW0AmjzNTXLL0+Mycq+AmHWeZ04iXHDUUpp7GS+gFZaZSM66QyLoscMu9qfoY70dgx67Lxj67M1Nfsa8WohOM3WQpoJhxemZNn4ijWNyKdXmSJ2TTiigmnl6cz/71jYoTaR78UvlY8GtuOTlguczLxXLG+DOm0nCT23p8f3nL6fj9p1+OrJ0e5T2b/fhxEq7GkzwpC3VrsTDtvfOyxaytaUsIm81p8/U7bSZ/FiAe201x/6PzbXuy80tEuk3kijmHqi7TP1wWxf3Y5NBkwRip0uGQmPplT76N9dhSE/W4HP/zP+Fy0hSjsMhNvCSq+R7vMT0f+wjx6+hu7Q+ZbiYTpyH1H6VWpkuv8lFWZCPfITGyeiDwscEmHf4lo+5S/7UJLRHhkbkIkXFwQOf2OYE9N0dz/Jl6LD5/M26vjCN4SeBxF/W8nzZDEMuou4zJvJ/7VDgnCbpRKRBwpOLF3iodbuEJmarfIXpHHe4mopzaRBpPvF8MyU++BlouifowIeM0d0oRXznKBzPWI3SLvixymEY8W0W8qRJNBLOSHSWZqe8zFfkHM9YjfFRV7KCQ86TPjMmf+D1/+9kSRw/lE0G2Vwql3xKDMVMJ7EnwCribifUop4ZpXGpY5eQe++vEUoUPildlfivHMxcdRwiFzMrElc7I44Z+wlfCWl41epczKTHzlfJYplglbfa98ZmiJMZn34es+I064F37ivC5FNeE/jcpMvCXos1Lsbwq0qqhx+K6SIZl/xZdtJkkYliWzkjT6j95uUOal+J/0pgMSf89Asyc1IjpAvDkMscxLcMJ3pfnEdIdm/6eRcD5iPSMQJIlPQsj8JX5LsOhvibtY+JzdcqVSLFm8akJmImHB+sxpNsPn7Or1fBoQ2+wCwVH4FFhm4i1B4FmZu9HQrptKJGcZh/+7QypzNSLh+rJgj0K7i7QS7owPagScq3sWKHOPgfC6giMlZ2iK7DbmUwgkG3+FXeZjRMJvSGOFvx8r9tVLGFcEDzhTNgdQZvyulT5Scg64Nt1RM6ZRYZeZSFj+3s4Ht4B1kdvloJEZmSGpfyq4g2dcFf49cgJ/e4dSZpzwBoVQjyBLlfdfOYC/vQP2FIWoy1xEwdtm9Ba/1WYFyxx85AqZP1aINBltD4jKVLDMwe+ukVnpMQrefSppB7XFDTKLS4tkUQFZttZO+G23yDxSyVsTZPqodlDJ6I1nmGW+RSnSu5FpU+2EExu6Q+Zf/ErePka28ufzXDxnXOafhOszZ4FnjprrJ2zk1EVuKh5V8vYysp2uZJqD/cZlrkgXYMjOR8j2gH7C97tDZusGpRdZqJpUnI2o0L9LmG/arykljDZETvXrJ4z+XQI2Jo5C+RFsj4o3VIOin42oDpuX2XpdJdBXgeERGwl/4RaZrQIK3vYDuwU2okKLc2H/QfWJQqDoZvu8jYSPmZAZvsYfNkfurSCwm2wjqh5hlhkmHEUXhTrLp8DuaRsJo2ZaARt+KKDMeK25j7xIMNruF2EjqjvCLHM5uArZbJI0ULT3oruNhI3I/DY+X3K/1Bu6h/1kI6r/hFnmBrfAhAtJA0UPI3VtJIx+mAXs6EmAZU4/AtO+RuZtGTBqoRLGeaAn9pDKHIt33g31SVgOjG6ykTAqdBKwpyiE2FbQAH5bBQZIvKFoo/z6UaHv+JDK7BuL90MIKnOeAv3yi07waYO+7QK2Rc0NtUkI74z6TLJzbycyKqYWSXbQ+ejQygxrVFnW9zHiQNG3i1VFP+EbDcmciE+uSbZFoN8FlvzwwflkoIWuEMuciA9ASHax/YNs1mknPAndPAOOhM0JubOzCtyqk9pc39sq7aBGIzchltnXC27VSf1OGCncAbHMp0st5CbgTFm5MKe22xaH/92LBom81UQmD2oHVdiEzL5rcMIHRJFmIJNN2gnDTX8BR8LmRHC4Bp9G/8ovcodWECOLqgSSnSNGZPZdAhOeLFyrgqUMe/k0gbVaAo6EzYlA5pW4P8V8kbvuyOKQUiTnCP9esNMy18Fl/IXndSO0LQBl4HUDTrXNhuhEZHN4cDdatCb5KrLorRnTxYZk9r0BS/sJF2FhNZ3r/XoJjzEqs28EvPxNgh41Q6HFbK2Q8kWZkhm+7bCsuwQJz4MWehsLVuJiAYFg6JuFUObN/eD1/6DdDYAGw7VCIorahEPmFHy+WrAImwYNZmkl3A0nHAiGvlmIi1IQ1foER3dxXYkXVULJYhBxpCgcMvvK4ANcgkXY66GBoOxQLm4mzvoGgqPwKSQlZuDOUmvYLtIfbm7RTKNXHlGWKzwyE22nptKnil7FCUvenmWHOHAbTpn9k2EEm6hCtL7mOGT1h+1qRIXjMMnsx2fZ6UVYojyWesLbqYTDKLMvrSEMgdzeGoOPfW1UbbaZThbXCY/Mvny14dXJRdgE3ARAPWGyP0Y4ZYYbOSzB+RGikND1ndXiwa8owiiz70180JlchCW+ZNorJlzQogirzHB/l2XFlSccTiOC7q50xOYjMumwyex7H086tQgLj4ic4DmlhJ+gEw6vzOk/wCAWUE9VfYioL1VIm6rKE1aZJ+HvDXIR9joi4NIKCT8qSDi8MvsO4oP8VA24rVTYwzNkwewUtWQLm8y+arg8LlUDbjEVcUS6LOFDooTDLLNvNYwilXi3VYdskthnjjCUTPp7ObwyE3dSahE2Az+lnmDTv8KE0+nvZRMyJ+NSdCWJIgQvk4EPayNY7Xm7jyUkjDIndIcR1CYqiuCNJ6cS/kSQ8FhJD4Fwy0xsMbCO+6HLdEHbretGE3H0LZRkiQmjzL6icTCEr7BomQPpqJ/PbzvhsMvsW4oDIQrxzhcF330deEE04RZhffmwy+zbgGMgFmHxu8IsGq8Dz24qCYdfZqIm2xrcFyB2tzD8RR9ck/03ZfropkodUMIqM/FzNnoL9LlZWDDZGrj/vISnNFNJ2IDMNfvDSH4oC53eJ21i/MLkR779aMWj395y+ybZvcuMzNNxW09iEXYIVVI7W8I/7v1oxc5vR/6hnLABmX13Y+WIJbq1VvAJr8y+IViNbdgr3gnhDBMy+z7HsSyBXjt/YwWdMMtMFOsiFmHrvOYRmYktBtXxmuRBaV8W18scg5uOEYuwDTZ6Q2bfKJzIjXhNsoijDNFrqHDL7NsVBWMjFmGpzsf2EzYjM/X+dQx2vN9B0lHoZGXYZcYFc8hFWKrlhVLCI90jsx93HorEHZo2f2U/6yekbbrDIrOfaJuIF2FTHPQybuqSNt2nILYYEGuSscPtJv1Tgjtk9tUbCOMj1iRTiP8KOe/GuElm4viJ9QteostcYC/p9QN8LpHZ9x6OkFiEndTdXsI9K/hcJbPvAxznz3h0uq0O5RuH+FwjM/V7mFiEzSxtJ+E1+X0ukznzCAw0Fff39PllDW8BSScrBLhG5kl4pxa1JukvJ33/lzvh33xuk9l3FG8x+GYcMf6KKM2kp546De0amX0T8BYDahHWt0G+JHFewqce6FwmM3UkYoefGP830aaJYNHpGorukRnX+7es1lTCXUUNEMmE3SZzMm5NY/1OGfhXEO1EEd2zuge4SGaibANdV1gr4aezEnabzL6uuPnHGrrx0tyO0vWbLCHbnCnO4iKZfQPw2Zc1dHP2KiUUE44rciZh18lM9bEm1iRP8e82hSeTyBrn9uC4SWbfFfoJ79JN2H0y+7rgqEuIbOqPxNtuzhL1WPZjSq6SmWr7JuzUMupHsvdjVsJrsyccapnLNgeId9pOb44Rb0uO3/AKvYjTfn7OssYDgHtiF1kiCuUAHUc6Gi84wHyCOkTC8UKr+D8nqydcHrjXOUbqJiYNXnZj7m+tqJkfzzUdWagS7vDqgyDh41u7mo4s1MTWH9qtxCs/9bsprn+LdyM6Nu3RSONMbF4kvv66l7MSbl83omDTY2U8njDDMAzDMAzDMAzDMAzDMAzDMAzDMAzDMAzDMAzDMAzDMAzDMAzDMAzDMAzDMAzDMAzDMAzDMAzDMAzDMAzDmOX/AVVB4euwBF7aAAAAAElFTkSuQmCC;" vertex="1" parent="1">
          <mxGeometry x="345.9" y="738" width="86" height="89.89" as="geometry" />
        </mxCell>
        <mxCell id="zoAzQkcT-fx47Set7v9W-84" value="" style="edgeStyle=segmentEdgeStyle;endArrow=open;html=1;curved=0;rounded=0;endSize=8;startSize=8;exitX=0.857;exitY=0.761;exitDx=0;exitDy=0;exitPerimeter=0;endFill=0;fillColor=#d80073;strokeColor=#A50040;strokeWidth=3;" edge="1" parent="1" source="zoAzQkcT-fx47Set7v9W-17">
          <mxGeometry width="50" height="50" relative="1" as="geometry">
            <mxPoint x="680" y="620" as="sourcePoint" />
            <mxPoint x="730" y="570" as="targetPoint" />
          </mxGeometry>
        </mxCell>
        <mxCell id="zoAzQkcT-fx47Set7v9W-85" value="" style="edgeStyle=segmentEdgeStyle;endArrow=open;html=1;curved=0;rounded=0;endSize=8;startSize=8;exitX=0.37;exitY=-0.013;exitDx=0;exitDy=0;exitPerimeter=0;endFill=0;strokeWidth=3;fillColor=#d80073;strokeColor=#A50040;" edge="1" parent="1" source="zoAzQkcT-fx47Set7v9W-46">
          <mxGeometry width="50" height="50" relative="1" as="geometry">
            <mxPoint x="501.7" y="687" as="sourcePoint" />
            <mxPoint x="502" y="597" as="targetPoint" />
          </mxGeometry>
        </mxCell>
        <mxCell id="zoAzQkcT-fx47Set7v9W-86" value="" style="endArrow=classic;html=1;rounded=0;endSize=8;startSize=8;exitX=0.857;exitY=0.761;exitDx=0;exitDy=0;exitPerimeter=0;dashed=1;" edge="1" parent="1" target="zoAzQkcT-fx47Set7v9W-36">
          <mxGeometry width="50" height="50" relative="1" as="geometry">
            <mxPoint x="460" y="490" as="sourcePoint" />
            <mxPoint x="460" y="360" as="targetPoint" />
          </mxGeometry>
        </mxCell>
        <mxCell id="zoAzQkcT-fx47Set7v9W-87" value="" style="endArrow=classic;html=1;rounded=0;endSize=8;startSize=8;exitX=1.05;exitY=0.438;exitDx=0;exitDy=0;dashed=1;exitPerimeter=0;" edge="1" parent="1" source="zoAzQkcT-fx47Set7v9W-23" target="zoAzQkcT-fx47Set7v9W-32">
          <mxGeometry width="50" height="50" relative="1" as="geometry">
            <mxPoint x="470" y="500" as="sourcePoint" />
            <mxPoint x="523" y="440" as="targetPoint" />
          </mxGeometry>
        </mxCell>
        <mxCell id="zoAzQkcT-fx47Set7v9W-88" value="" style="endArrow=classic;html=1;rounded=0;endSize=8;startSize=8;exitX=1;exitY=0.5;exitDx=0;exitDy=0;entryX=0;entryY=0.75;entryDx=0;entryDy=0;dashed=1;" edge="1" parent="1">
          <mxGeometry width="50" height="50" relative="1" as="geometry">
            <mxPoint x="460" y="490" as="sourcePoint" />
            <mxPoint x="660" y="415" as="targetPoint" />
          </mxGeometry>
        </mxCell>
        <mxCell id="zoAzQkcT-fx47Set7v9W-89" value="" style="endArrow=classic;html=1;rounded=0;endSize=8;startSize=8;entryX=0;entryY=0;entryDx=0;entryDy=0;dashed=1;" edge="1" parent="1" target="zoAzQkcT-fx47Set7v9W-34">
          <mxGeometry width="50" height="50" relative="1" as="geometry">
            <mxPoint x="460" y="490" as="sourcePoint" />
            <mxPoint x="670" y="425" as="targetPoint" />
          </mxGeometry>
        </mxCell>
        <mxCell id="zoAzQkcT-fx47Set7v9W-91" value="" style="edgeStyle=segmentEdgeStyle;endArrow=classic;html=1;rounded=1;endSize=8;startSize=8;entryX=0.5;entryY=1;entryDx=0;entryDy=0;entryPerimeter=0;" edge="1" parent="1" target="zoAzQkcT-fx47Set7v9W-54">
          <mxGeometry width="50" height="50" relative="1" as="geometry">
            <mxPoint x="708.2" y="370" as="sourcePoint" />
            <mxPoint x="729" y="270" as="targetPoint" />
          </mxGeometry>
        </mxCell>
        <mxCell id="zoAzQkcT-fx47Set7v9W-93" value="" style="edgeStyle=segmentEdgeStyle;endArrow=open;html=1;curved=0;rounded=0;endSize=8;startSize=8;exitX=0.37;exitY=-0.013;exitDx=0;exitDy=0;exitPerimeter=0;endFill=0;strokeWidth=3;fillColor=#d80073;strokeColor=#A50040;" edge="1" parent="1">
          <mxGeometry width="50" height="50" relative="1" as="geometry">
            <mxPoint x="41" y="961" as="sourcePoint" />
            <mxPoint x="100" y="961" as="targetPoint" />
          </mxGeometry>
        </mxCell>
        <mxCell id="zoAzQkcT-fx47Set7v9W-94" value="Légendes" style="text;strokeColor=none;fillColor=none;html=1;fontSize=24;fontStyle=1;verticalAlign=middle;align=center;" vertex="1" parent="1">
          <mxGeometry x="30" y="900" width="100" height="40" as="geometry" />
        </mxCell>
        <mxCell id="zoAzQkcT-fx47Set7v9W-95" value="&lt;font style=&quot;font-size: 12px;&quot;&gt;Lecture des données de KAFKA&lt;/font&gt;" style="text;strokeColor=none;fillColor=none;html=1;fontSize=24;fontStyle=1;verticalAlign=middle;align=center;" vertex="1" parent="1">
          <mxGeometry x="160" y="940" width="100" height="40" as="geometry" />
        </mxCell>
        <mxCell id="zoAzQkcT-fx47Set7v9W-98" value="" style="edgeStyle=segmentEdgeStyle;endArrow=classic;html=1;rounded=1;endSize=8;startSize=8;" edge="1" parent="1">
          <mxGeometry width="50" height="50" relative="1" as="geometry">
            <mxPoint x="44.50000000000003" y="1020" as="sourcePoint" />
            <mxPoint x="65" y="990" as="targetPoint" />
          </mxGeometry>
        </mxCell>
        <mxCell id="zoAzQkcT-fx47Set7v9W-101" value="" style="shape=image;verticalLabelPosition=bottom;labelBackgroundColor=default;verticalAlign=top;aspect=fixed;imageAspect=0;image=data:image/png,iVBORw0KGgoAAAANSUhEUgAAAaQAAAE4CAYAAAAU6IcNAAAABGdBTUEAALGPC/xhBQAAACBjSFJNAAB6JQAAgIMAAPn/AACA6QAAdTAAAOpgAAA6mAAAF2+SX8VGAAAABmJLR0QAAAAAAAD5Q7t/AAAACXBIWXMAABcSAAAXEgFnn9JSAAAAB3RJTUUH5QIZCDAbhrzFQwAAPeNJREFUeNrt3Xd8XmX9//HXOefed3abpM1omrbp3pNSZtkCgrIEB27ULyooooDj60+GqAxFcXwFmTJkg7L3KtC9V9o0STObndz7nPP7I7GQphRoA03a9/PxyAMezZ3kvq8z3udznetcF4iIiIiIiIiIiIiIiIiIiIiIiIiIiIiIiIiIiIiIiIiIiIiIiIiIiIiIiIiIiIiIiIiIiIiIiIiIiIiIiIiIiIiIiIiIiIiIiIiIiIiIiIiIiIiIiIiIiIiIiIiIiIiIiIiIiIiIiIiIiIiIiIiIiIiIiIiIiIiIiIiIiIiIiIiIiIiIiIiIiIiIiIiIiIiIiIiIiIiIiIiIiIiIiIiIiIiIiIiIiIiIiIiIiIiIiIiIiIiIiIiIiIiIiIiIiIiIiHxiDDXBgenZ2td5ofrFwLcmfCV3RLjAAFy1isigOjfbQD2QMgzjoPnQcqC5tQBaa9Lnjjrm0juP/tt5YzNGmQokkUHFBGqAs4HqgyWQPNruB5jbRoBhpJE1/KcNseYLXdf1Al41jMig4x5s52gF0oEWRpCG6/4Mw/y+i2sYhuGoYUQGbSAddGWhHEhhBD8Dvg/41SgiokAShZGIiALpoA2jnyqMRGQw0z2kwR1E7w2jixRGIqIKSRRGIiIKJIWRwkhEFEiyvyiMRESBJPu9OlIYiYgCSRRGIiIKJIWRwkhEDmga9j24wuhiwKdGERFVSKIwEhFRICmM1CgiokAShZGIiAJJYaRGEREFkuyvMLpCYSQiCiTZ32F0mcJIRA5GGvY9sMLocuAH6DkjEVGFJAojEREFksJIYSQiBzF12SmMDg6uixOJ4XZFMCJxjEQKx4SECQm/RcJjEHdtUoaLY4BrGGCo2fatzcEwDDymhc/jxe/xEfYF8Xm8ahtRICmMDpLzoOOQbGolXlNHdP1G4pu3ECuvoaO5lh2JVqoTUeqwqcu02B52acvwEAlbRO04cRxsE1wUSP3BMAx8pkXQ4yccziQ7YwhFWfmUZOczKq+E0fmlDMsYQk44E49pqcEUSLIfw+hihVH/cGJxotuqaX17CR2vvU3XypV0VW2nIRVhcw6sy/GwYaiXulyDhoBB3GPguE73D9sutIES6OOrTnuuFLr/33UxXRev10dWKIPSrDwmjpjInJLJzBk9g9G5xWQG03e7NVzbwU0mMXxeDFN3HBRI0p9hFFCj7MN5znaIVdfS/PLrNP7nGboWLSZe30hDwGBNcYh3ZgZYn5dJXdAgYTi4rgsO4PZ80XNFbiiLPvELCCAO1Ec6qO9sZVHlOm5//SFywllMKxjDkRMP5biJhzGpsIw0f+i95S/x2gbitQ1Y4RDBkUV4MtPVoAdKRa0mOEDDyLUpCeYmnjnpQXdsxqgDqgpzEkk6V62j9oFHaXz8KZIbtxLHZUNxGq+MC7G4wKQm5JJynXcDSAbJVYYDdgrTccgJZzKvdCqnzzyB4ycfTlH2MEzDwHUcEvU76Fi6mo7VG/AX5pFz9KEECoYfaGe0rcBCoMIwDo5TtQLpQK2MDsBAchJJ2pesoOq2e9jx+FO4dY1EgwGWjEnj6fF+VuZCp2mDrRA6YMIplcRnGIzPL+WMOZ/i7LknU5Y/EsswwXWJ1zbQ8MSztLz1FmlTJjL8M6cSLClSICmQZMCE0YEWSI5L57qNbPvbbdTd/wjUNZEKBnmrLI1HJ3tZMwTirtMdRHJgslOYdorSIQV8bt6pnL/gDEbnlWAaBrgu0YoqKu/4J81vL2HYCcdReM5n8eUPVSApkGS/h9EBFEiJHS1sv/Metv35VhKbK/GaftaUhrlvRpDFw1xiCqKDi2NjppKMzR3BN476HJ+f/xnyM4b07PI2za8uYtN1N+FEI4y+8FvknngMZmDQ7v4KJOnXMArz7kSpn+wAhkEeSK7t0PrmO2y6+nc0P/86/gS05IR4cFaYf5eZtP23a04O2orJ69gcOmo6l3zqAo6ffAQ+q3uMVqKhiS2/v5mqe+5h2AknMPqS7xMaPVKBpEBSGLG/RtMN4kCyO7qovOUOtlz3J1LVjfgtP4vHhvnH3ADrMhxc29U9IumWjJPjC/Klw87g4hO+zoic4d27f8qm7qEnWPvTK/CmpTP+f39B7knHYngH1cDigy6QNJD/QAyjQSxaUcWa7/+EDZdfhVvdDOEw9xyWxZVH+1mbZuOmFEbyHl4/zU6Km56/k/NuvpDn1r6O7TgYHovhZ53GrNtvw/QHWPbVb1B+3R9JdXSpzRRICiP5YG1LVrDiq99m+2334Y8atA0Ncd3xGdwy1aCNniHcIrsyTGxfgNe3reb8v13Mn1+4g2gyDgZkzZ/NzDtvJXv+fDb+4krWXvQTYtW1ajMFksJI3l/Ti6+x4msX0vLiYoJugMrCIFedkM6zRS62qqKBq2fmhYFSLdXEuvjxv37DpfddTX17EwChMaVM/cvvyT/tZKpuv5NV37mIrk1btO0GIM3UoDDazyc0aHzyWVZ//yfEN9cSxMeGUSGuPyrIxpANKTXRQBby+jEdm6idwgSSAPvzfodpEXFd/vzSPdS31HPtuVdQOrSYQOFwJt14LeBS98Bj2NEYk2/6LWnjx2ojqkJSGEm3xqeeY/WFPyK+uZYAHtaNDnHtwp4w0ii6gc1xyA9l8IU5n2JMOIvzZp5AtmGCs583nGFg+wI8sOJ5vnXLj9lQ110NBQqGMem6a8g98ViannuZ1d+9hK6Nm7UdFUgHSBC9G0aam24vNL38Omsu+jHxrQ0E8FA+Msh1R4fY6lcYDbgydrdnD5P69h0cPekwfvP5X/DNhZ/nt5+7nKJQBsQjHymYDMDj0q/jfl1fkGc2vcO3brmUdbXl3aFUXMjE315J5qzpND33Cmsu/gnRympt4gFC873vfVX03jD6wcALI5csb9j+Ytk5DPFnD7iu2fblq1j9Pz8guroSHx7qhvn5zTFhNoRtDV4YQDymRQgDElFMO4nHcTDsFK6dAscmmYiSiEf45sIvMH5YKTNKJjF1xERCviA7Wuppi7SDZe05aQzIibrMrkrRHjZJeQ2c/rotZXmpaNrOuso1LBg7h5y0LHx5QwmPGUXTK6/T/s5KEk07GHLUEVjBAXc92QrcDrT+8pe/PDj2Nx1ye+2/YfRDtITERxLdVs3aS66gc+lGfPjpyvLwpyPDrMnQPaOBcS3jds8j59iE/WEuOPIcxuaNwDAMvJaXWDLG2voKtjXVMHJIAadPP4bsUAam0d3hctzEBSycMJ8lFav4fw/fwAubFhOzU7jvtzCfAT4XTihPMLHR5o3RXlbkW/1XJfsCvFC+jIvv+gU3f+XXFOcMZ8jCIyj76Y9Ye9EV1N77KKExoyi77IeD7TklBZKqoxEKo31gd0XYfM3vaHnhLTwEwGdw9/w03shzFUb7W8+0POnBdIalZRL2+LAdm0Xr3sTrD3D+/NMZM7QYwzBwXZeEncRreXYGUa/CxDCZWzqN2y+4kbe3rOAPz/yDZ9a8huMPwH9fbwCWQTjh4nghlIKzl8eZ3Jji5yel0eSl/6plX5B/r3uDK/51LTd+4ZfkhDMpPO8s2pYuo+rmu6i48S+klY2h4NwztB8okBRGB8uVd9U/7qLmzgexXD9ew+X5qWk8PtrATamfbv9uG4fSrDzOnn0Sx00+gpIhBYR9QWzXIZqIEU8lSPMFcVwXyzAwDAO/x/eBv3ZIOIuTphzJhOGj+dNzd3Dnmw9TH+2AgJ+hEYfJNUmO35ggr91haLtLyoHx1TbfeCPKzQuCtHv6L5RcX5B7Fz/JqLwRXPHp7+ENBhj9o4toW7yctrdXsvnX15MxbTJpE8dpf9hPdA/pgA2jgXcPqfXtJay75KfYjRG8GFQXBrjxiAA7TIXR/q2MUph2kgWlU8kJZbK6oYL2aCdF2cMYmVPAkLQs8tKHkB4Id8+uvReyQhkcM/FQZpROprFiC9Ne38o3Fif57MoERU0O2REXy3537cRxjSkyEi4rir0kTfrtOTTHNFm1ZQWluUVMLhqPNysTb04WO555kfi2OlKRdnJPOAbT6x0Qhwy6hySqjPpfqrWNzddcR2xrPR782AGDe+aG2BZw1FW3n6pVUgl8loeRWflMKZnMjKLxzCgaR0FuEQGPn4DHh+M6WEb/XLdapsVxExYw+4JSKuuuZceyB0jaJrsO9nWBuGtw0uoEAH+dF6Td20+hZJg020n+36N/YFLReKYUjSP/5BNp+OxJ1Nz6AHUP/ofc446h4LwztY8okBRGB6rt//wXO55+BQs/XlxeGx/m5UIURvvl6iBBhsfHwqlHcc68TzOndCpF2fkfqguuP2QXFhC+8Roqpk6k4pobcWqaMXczSDXpwKmr42zKtXhkoq//9hXLy7rGKq557Cb+/JVfkxlMo+SCr9P03KvEKxvYetNfyDniUAJFBdpXPmF6Dklh9LHr2rSFbX+5FSPWvcN1ZHp5YIqfiKuuuk+a5bosLJvNXRfcyF0X3Mjn5p7M6NziTyyM/ssXClH2nW8w+fabSTvxMAjsvl/OcQxKmm3M/l6YwOfnkRXP88DbjwOQOWsaBed8FjDoWLya7fc9oJ1FgaQwOuA4DtV33E3X6nIMPHgNl9cnp7EmS5OlfuJcl7AvyPTiCayoWMltrz3Am1uWE03G9svbMUyTgmOPZvrf/kBgUgnubkqgBHDM+iTzqpLg6c9QMogCf3jmH2ys34phWRR+4RwCIwsg5bL9jnuIbK3QPqNAGjBhlKYw2ncdazdQc8+DmK4XE4eO4Wk8NSlIylYaffIJYNCRjHHDC3fys8f+yIX//BXn3vRtFm9d1U955xKpbyAV+2gB501Px8xKw91NheQCaVGXC96MMqLD7t8zluVlZX0Ff3/xHmzHJm3iOPJPPxEXiKzZSu2Dj2qfUSANmDC6TGG071fkNfc+QLy8FgMLj8dg5ezhrA8kwNXakPtlkwCuxwf+MPgC1Efa2Na0vV9+d93Lr/L2mV9kyecvYP31N7H9sadpfOolyu95gPpX3qCrppZUItkndlzDBd/7z5KQBErrbc5eHsfT3xO3erzc9/bjLNu2ZucaSt78LLCh7v5HiNXUaaf5BGlQw/tXRj9QGO2bSHkFdQ89gYEXsHGL83mpLEA8ktC10ICIJog5KTbv+HBzuTV2tlDZXIvX8jC5oGznEHAXqHnqWdZ9/8ekNtYQYzlNDz2F6fFimCZOKoWZEcQ7soBwUQmBKWWM/s7XSSsqxLFttt11D5FX3sGL930nZ4hjcPSGBK+O8vJWoRdS/TQO3LSobG/iztf+xfSSSWROn0r2grk0PvQsnas20fzSqxScd5Z2F1VICqPBrvHpZ4lurOyujgyDukPGsMxs1dpGA+oM4OHZVS+zoWfy0fe9uEjEuOyeqznl6s/xxsZ3doaR47hUPfwYa7/9A+yNdZj4MQngIYCZsjASYDlejNYkyeVbaHniWbZf+0fW/fwqKh98nNVX/IqqX/2eVNKhJtvCssBL35nvXCAYha+8FSMv6vTvmcvj5dHlz7O6ej1mKEjep04An4kbS1L/+JM40Zj2EwWSwmgwS7V1UP/402CDi4NveBbLJmbT1Nn67tQxMgDOABarqtazuWHbHl+2qno9j614jsL8Yk6Zfkx3GNk2Fffcz/r/+RFORXNPJbwrY+d/DTzdYeWEaLrtUdZ87lvUXvtnYu1d3HhcGt8/J52/HBFka55FLGxgeHoHUxIYvz3F55bF8Tv92waVbTt4ZMnTAOQcNp9A4XDApOWNd4hsqdB+okBSGA1mHWvW0r5kJSZeIIU5exJvWy24tsqjAcWxmVs2m5kjp7zvS6LJOHe89gBNXW18fsEZFGUPw06m2PKPu9h08eW4tZ0YH7H333Q9WCkPASPAv6cGWDPMw7jaFJtyLG6bF+D/FgR5fLIPx8POmDOBBAafXhlnXlWqX0fduZbFEyteoKatkdDIYjLmTAEcEjU7aH71Te0nCiSF0WDW9NJrJJvaAQOf30vzrDLWtdWCuQ+7nGP3/9cHPQvlOD2vdej3vsb3zKq9x/ey8zWpD36/u/sbe/rZZILm5jrsPaxd9OzqV7hr0WMEQulMKhoHSZvyv/6dzZf+AqMx/pHD6L98uKwpsnhgWoAhbQ7TalPM3ZZk8vYUxY02tmvwdomX2iwT04T2oIFrgmGDx+nnbWF5WVe3lTc2voPh95GzYAGYBqQcml99Eyee0EH9CTh4BzUojD42qY5OWl5bhOGauNgEiwpZMzKD5kXNe91d5zVMCjNzsIz+m9jMdV1i8Qg7Ih0kjO6TUq/OJtclL5ROmi9IPB5hR6SdGIC1j4eN40AqQdDjJcsXxO8PYpoWHakEjdHOd19np7Acm+xAmPRAGpbHQ0s8SlOskw9cyc6xMewUmd4AmeFMvF4f7ck4DV3tO5cY9wKHjp3DsWPnkRVM3/22dGz+vew52uMRwqEMvJaXin/cwZYrrsJsd9nb6TAtoD3N5NZ5QXb4oCnfYvVwT89VsovhgtnzqFpJu8OvnuxiY67F+IYUXhe2DLGgn0MpkkryzOpXOH3OSWRMm4SVlYbdHKF9xSoSDTsIFGvmBgWSwmjQiVXV0Ll2AwYeXJKEZkxipdNGKpkE7140teMwJBTmz1+6kgnDRpFyUrjuvp+MHNelMx5hWeUabn7uDpbWbn5PKLkETYtrz/wRR4ydS3uskxVV67jhqb+zvG7r3oeSY5PnD3Hmgs9w7JQjKc7KJ+wP4TEtbnz+Dm5+6Z/g8UEqyYShhXztyHOZP2YmQ8KZWJaHXz12E3csehy8vj3+jWGBMOcvOIPjpxzJsIyhBHx+rn/mH/zpxbu7t4GdYtywUfz1q79mbF7J+8ZbU2cr6xsrARji9ZMbyqJ15Src9jgQ2quLAwNwvXDbIQGWDvdAqucJpJ6A2bVW25pp8tsjgxS0Oywt9tAcMqnINPt/VWHLw5vly6lraySvbDSBYcPpat5MvLKerk2bFUgKpI89jC5WGPW/znXrSdS1YGBiYGDMnEx568q9H8xgmjRGO7jj9Qe58JgvUpZfSk4oE8vsnx7nmSMmMqN4Il/420Wsa6oB0wLHYUROPkeOm8fIIYUATCsaT3H2cM7760XUxTo/+udxbIb5Q9xw3s85c86n8JjvVhed8QgV9Vt7XpdiWv5I/u+r1zKndGqvcNhUX7Gzwnm/7r08f4g/nPcLzphz0s61itqiHWyqLX/3PZsW5Tuq+c+y5yg7/qsYu/mdW3dU85P7ruaNrSsJef18af5nGJ03gnUpe2do71W1a7rcPz3AE+N8uB9i+LbjwLICDyuGdz++5u4utfqDaVHRXMPKbWv41NgFBMcU0bV2E3YkQseadQxZeIQO7o/ZwXUPqW8YBbQL9L+OVWt7+txdPFlBYiPz2bZj+z7dP7INk3sXP8nJN36dk687n2/e+VP+8uLdbKzb2j+hVDKJc+d9GsO2d4bH1OIJDMsY2ut180fP5Iiy2ZBKftT+QcLAT0/5H86ee3KvMAKobKphdW05mBZeDL698Iu9wghgQ90WNn9QdZZKcubskzh91gm9Fs6rbK5lbc3m7rAFMAyidpLfP3Mr9771eJ/pg9bVlnPBbZdx/9JnsUyLX5x+EZef/n3cji46V67H3MtrWT8ur471cfesAMmPkmc9t/Fc+2MKo5426UzEWFq5Fvw+QqWjcHFxbYeudVv0uIICqd/DyA/8WGH08XGTKbo2bO3ulsEhmF9AV3EuOzrb9nm4t+vx0ZpK8k7NJm597QG+f8fPeGHNq/323ueMmka6LwC4WK7L/NEzCOzSxRjw+jhi/LzdVhR7PNBSCb5++Fl85cjP7XaF1WWVa2hoawKgKDOXoybM7/OaJRWr2BHrfP8KyXUJe/2cNG0h3l1Ca1nFKuo7W3pfFJgW27pa+fadP+Nrt/6Yp1a9QlcixttbV/D1Wy7l2Q1vgc9PusfHwgnzCXr9NDz/IpGV6/ZqIIMHKM+3+Nv8IO0WA/MEbxisqFhN1EkSLhnZU+VbRLaWk+rs1AGuLrt+NQz4nMLo45Nsaydaua3n/lEKf0khVWaMWDzSP88fGUb3fR7TQ0Ywg6m7Ga78+uYlPL/uTSzT6nPOcxyb0bkjOGPWCX3CJi99CAF/kPZIOxmhdGbvUqH819xR08kPZVIX7/pwnykZ49RJh/OTU/6H0G6myLEdm0Xly4k5KTAMJheMoTA7v9dr4qkkb2xasud7Z65DyZBCJheW9f7MrsObW1aQtFN9qyvTot1xuGfxkzy56mUWTjiUDbXlrKmvAG8AIxHj9NknMX7YKFzbofmlV3G7YkDwo202wPbAv2YEqE4z+2+mhX6/RDcpb6yiPd5FoCAP/AbEId7YgN3ZhSc9TQe5Aqn/rn/QKrkfK7u9k0RzM2Dg4hAYWcCOrlZs2wZPPxbkjs2Y/BLK8kr6nHxvf/Vf/N9L/wRvYLcn7WHBdEqHFnLomFm9vmWZVnf14tiMHVpEWX7pbv/0uPxSJhaWUbdpcfcAhD1JJZhdUMbVZ1/GsMzc3b6kJdLBkorue2yG6zB39AzS/KFer6lpqWNZ9fo9d9fZSaYXT6Qwq3eYNXa0sKxi1fv/rGGAN0CrbfPQ8ue7X+cNQCLK0WWzueL0i3a+n/DIUoy97FixTWgOmt1D0QfsGcKipqOZhvYdFGSkYfgsiDukmjqwu6I6wD/u6wE1gfSnVGcXqdbuYckGJqGSEjpSMez+XvvITjG7ZApD03N6/XN9exPLKtdCIK17ws5dv/whOlIJGjqa+/zKSCJKyk6C4zCrdBpD07J3+6czgmkcOnrGB59YHZvCcBZXnvVjJhaMed+XbazbwsbGKjAt0vxB5uym6ltbu5ntLbV7rMgMw2T+mFl9uuu2NFZ2z1e36z28VAISse7/Ok5PMPm77zMloiwoncqNX/jfnYM6HMcl2liPQ/Ijby4XCCZcZlUlMQbyvLqmQVe0g+qmGqxQENPjAQzsjiipDnXZKZBkcFVIXRHcaGLnCTI4vJConeiXYdq9SnuPl3mjp/cZrry5oZLypu3v3rzvc2Z08Xp8pPvDfb5V09pAVzyCz/Iwb9S0PY7iWzB2Tvf9pvf7XK5DhmHyi9O+x3GTDt/jZ1lWuYbWSHt3l1v2MCYVjt3lZO7yxqYldCYTe7h/5JAXzGDuqGl9vvXOlhW0RjreDTPHwZtMcMqkw/nGYWdy2MipDAul4+sJKCMe4dhxc/nrV37NlF7vxSVtymSCsyZhe+O4HzGYXKC0ycY7oFcJNkjYKRo7mjG9Pgyrez9yYklSrR06wD9mmu1b+jeQ2jtxEz3DoAImnrwcUk4N/XoH23EoSMtiRsmkPt9avGUZrbGu9+9Kc21y0/MYmVvU51urqjcQTcQpyh7GzJIpe3wLkwvHMnJIIavqK3bbFeZJJfnO8V/lS4eduXMi0t2JpRK8uXkp3TMqOUwtnkDuLlVfR6yLRVtWsMeHYW2bsmGljNmlCzOeSrJoy3Js3O7wTCXI8Yf49rHnc/FJ3yAzmE5HrIttTdtZUbWepdvWEDBNvn3s+Tsro51Xr6bJ6C+dx/BjF1L9wMNsv/Vu4hu3YsRsDDwfaqCDL+ViusAArpJSrkNLpAMjaOx8o65tY8ciOsAVSDKoAimewO1ZfM/wWVjBAEZXP599HJvxBWWMyBne658TqSRvbl2552osleLwMTMozu79s62Rdl7d8Ba4DpOGj6J4l9+9q+GZecwrncqqms19AykR4/Tpx/CDk775gUuDN7Q3sbxqHZgmluswf/SMPj9T3lDZPRu3x7PHNplbOoXscGavf65ta2TFttXgumRbHhaMncN3jj2fhRMOxe/pfgg4O5RBdiiD6cUT+MIhp+Hi9hmWvrN+MAzChcMZ+91vU/DZ02h69U12vPgK7a+9TWJLJWbCet+OFxuDnIjL0KhLdZoxYFcMdlyXzkQU12fjOk5PKDm4qZQOcAWSDCbvjR7DY2H6ffhi3v69JHZs5o6cSnqg94in7a31rN62prtrynH6vjE7RWFaFl8+/Bx8nt7TBL25eSlLKteCaTJn9Awyg71/t+u6vYZ6W6bJEePmcfuix3p3XKUSLBgxkavPupTc99yDcl0Xx3WwdjnRr6neQGVzHRgmWYE0ZpZM7vNxl1aupb6rpc/URu/tDPN7fSwom9OnlddUr6cl2snJU4/mxEkLmDtqOrNHTulTtW1prGJD7RYOGTOD7FDGB29n0yC9uJD0886k+KzTiNTWU33vv6j89R8xWpK73d42UNxsM6MySfUk3wDei10SdhI7GsO1U+9+ElcPIn3cdA9J+jeQvF4Ms/spJMO0MCyLNH9ot8/e7O3JIuQLMn/MzD7f2dJYRUc8Sk44k5xgeq+v7ECY4sxcLj/1wj6j6zpiXdzyyn20xSOk+UMcsstw72gixhvly0js8jDszJGTKUgf8m742SlKMoZy1TmX9Rmh907FKtbXV/R5z29XrKIjEe0e2ZdbTNmw3j+XtFMs2vgOKWcP5YTjUJyRy+SicX1//5YVdCaibG6q5jdP/R/fu+1yVlat6/O6ls4Wvnfrj7n47v9ly45qko5NPJWkKxEl5ez5SVTL6yV9RBFjL/4uwy/4Io6xh0rCNQik3O6JSwcwB7AjUdxk6r8JjOHz6QBXhSSDiRUOgteCWApcF9d1GRLKwDLN/umhcRxKcvKZsJtRa1OLxvHoRX/H2E34ua5LWiDEyCEFvQYruK7LXW88zJNrXgXTZETWMKYUj9+l26uBW1+8i9HnXN5r5obSoUVMKR7PttWvgOEjy/Lwy9Mv4ohx83r9/Mb6Cv783O387DMX9QnCtzcv7R6o4DrMKp1CTqh3l1tTZwtLerr03pedYnLx+D5dmO2xThZtXUFHIs6G+grAoKqlnkvvvZL/+9pvKXnPPaLRw0opKRjF7W8+wpLKdcwtmUw8laA10kbRkALKCsYyemghRdnDKcjOJyOQhs/jwWt6dlaOltdDwZmfof4f9+DWR3Z7vesAJ2xK8tZoL5Vhc8B22/ksD/aODty4A5hYHg+esJ5BUiDJ4Aqk9DBGwAMdcVzbxk2lyB2Si8fjJek6+951Z6eYXDyRgqy8Pt/KTc/pMyDggzy1+mV+/e8/E3G7b/pPLR5HXvqQXq8pb6jklbVvULGjulcghXxBDi+bxROrX8FnJ7n4pAs4b/7pvT5he6yTqx+6DjD73Lfa3lLPmrotYFr4XZd5o6b3Gdm3tmYzFY1VYO75UD109PQ+D/pWNtey7r/3uP77e30Bntu0mJ89+Dt+/4Vf7uyeywqmM2/MLJ7ftITVDdtYXbu5e1sZ3V1VhmESNC3Sg+lkZ+RQlD6EgoyhDBtaSFleCWfMOpHsUAZOIgG2g2OBr2d1jffWVylgTF2KC96Ice3CEO39N3l7P5b5Bn7TQ6K6lp7RJhghP97sTB3gCiQZVIEUCmKlhbAbO3GSNk4sTtGQQjL9YaKR9n3uqjEwmD9q6gcOFvgg0WScB5c8xS8evI7KzmawvFi2zfwxs/qc2JdWrmVLaz2LNi/lkFHTe31vwdg5DLG8nDB9Id874Wu9ngFK2il+//St/Gvxk1z/pSv7TudTuZr69h0A5GUMYcaIvqMG39qynJZ45P1nSXddsgNhDtmlGxJgWcVq6jpb+gyBd71+7l38JKVDi7jitO/h67k3Na90GmkeH52G0WeghgtEcInEu6iv72B97ZaedZocRmfmcnjZbLJ8IWruewC7tZNbDs8EAz63OEZuh0MSY2cwxTE4dHOCs3NMbpsdIGUPsJOiYZJueOmq2oqLi4GLJyuMlRbWAa5AkkG1Q6WH8Wank9jaAHGHZEsbQ8OTGZ6eTV1XK/t029J1yQqGmb1LKPz35J90Uhh7qMBcXNoinaysXs+9bz7Kw8ueoS2V7B4s4DpkhTKYPbL3oIJYMsE75ctwXHh18xIuOPo8gu+ZAWJU7gi+ctiZfOO488naZTDAI0ue5oZnbiEjPYdZuwxRd1yHRVtWELO7pwuaNGwUxUMKdgnNGG+VL/2ALkybUbmjdjNjhcsb5ctIppLgs/rEetLycNNztzOleAJnzvkUAJOLxjM8O59NTTXvM6uD0TN1k9nzfQOSUc459DOMyR/Jljvvofm2+9mSH+DZ8T7afQbLCzzMr0hy3PoERU3vPlKbcgzOXBanOtviqTHe7tJpgPCaFjm+MF1bKzF6Zhzx5mbjSQvpAFcgyaDaoTLS8ecOp5NNkIRIdQ3DAmmMyithWW35vv1yx2bM0CLK8kb2+dbNz9/JY8ufw+vx4e6mD8jAIOnY1Hc0Ub2jmrZErPtZpf+eeG2bsty+0wVVt9SyYvtG8PlZuW0N1S11vf5+XvoQfn7WpX2m+llUvoyfP/hbWmJdHDliEmN2ec/NXe0s2bKiuyvNcZg9ejoZgd5X4JVNNazcvvkDpgtKMXvkFPJ2mZW8saOJpRUr9zBdkElLKsH1T/6N2aVTGTm0iMLsPA4bNY1NjZUfbr0nO8nkvBK+ctS5dG0qp+LXN2C0xXlxRgZtXgOSLpuzTDbPDvD6KC8/eCnClKoU8Z5qyRuHr74ZpTLLZO0Qz87usf3KdfEHw+R50olvrX13Ta/CEVgZ6TrAFUgyqLrs0sKERo9kBy9iYBCp2kbA8jFtxEQeXP7cvv1yO8WMkVPIy+h9n6gl0sYDi//Da5uWgMe7599hmt33Y3btAnMdZpdOIyec1euf12zfRG1rA1heqtp2sLRida9AskyT9F3CqKJpOz++/xrWN9eBaTFn5BQydhlGvrmhgg2NVWBYpPl8zCvtO8PCiqr11LU17HFAg9fycNiYWbsdxr25sfr9Z6wA8PhYVLWOPz57G9ec/RP8Hh/nzDuNh5e/QGtP5bbHSsKx+caR5zJqSBGrrvs5qXVVxMJBVhR43l3N1QESLlsyTX51XJgvLI5x3IYE/rhLAoPcVocLX41y1fFhtocHwKSrrkNOOJOs6mZaGmsxMHFwCU8ow/R5dYB/zDTsW/pdePwojJ6TaHTLNkimmF0ymTRvkH25g+2xPBwyanqfIeQVO7ZT3lgFgXB30Ozpy/Lu9kTrNy0O2WVQgeu6vFW+jK5U95Q98VSCVzYtxtnD8ygdsS6ufPgGXilfDl4fQcvLoWWz+wTG0orVtEbaAJf8zFwm7jJDt+06vLlpMVE7+T6HqQF2ioJwJjN2M/fdm5uW0BLt/MBQcT1ebnv9QR7vuVg4bNwcTpi4oHt+uz1JJTll2tF8/vAzaV21hoZ7H8WDlx0hgx1pRt/NbEN90OAPRwS58oQw6wo8+Izuh2UnVKe49LkIU+pTe8zPT4RjMzK3EHPzdpKtUcDA9PtInzROB7YCSQaj9EmTsMIhwCK6uZJE4w4mF4+nNGcY2Ht5B9txyA9nMWs3J9+lFatoiLSx17N2OjZ5GUOZXjKxd7jEu3h763um7LE8vFO+jIaegQi7Stopfv/MLdz19hPdE7k6NgVZeUzaZYh6PJVkUfmy7mLAccgOhMkIpvfpYhwazsTnAoko2EmwU91fqQQkImRZXr56+NmMze/dHdgW7eCZta/hfpjmMCyaYp3c+fJ9dMWjhH1BvnjYmWT4Q3ucpy/HH+TiE77OkGAG2x94iNS2BjxYVOZYtHuN3V93OJC04bUSLz89OczfFwRozTBwgamVKa78TxfHlycxPfvxGSXXpSy7CGPlmu7F+bDx5Q8hffIkHdjqspPBKDR6JP6SfCKrtxGtr6GrvILhR8xj7ugZ7zv324cJjXHDSvs8a9M9OGB59/IW1l52qTg2U4aPYkROwS7dXpWsf+8KrabFpsYq1tdt2e1SEg8veYrrn7mV+M77UimmFJb1GazQ0NHE8p5ZIQDa41E6YxGGvqe70DQMLjz+a5TklfDEypfYUltOLN6F1xsgN3sY04vHc+KUIzlk1Iw+o/deXPsGb5Yv+3DtkUqQbnk5atJhhPzdgzWGpmXj9/q7Q/C9g0QcG9OxwXUZP3wMo/NGENvRTPOzr2LSvfbU2uEebNN4t8tut3/Tpdlr8M+ZAVYVePjey1HG1KdI64T/eTlCwjJ4odS7X7rvvF4Pk91MIu8803P/yCY8qQx/4TAd2AokGYz8w/PJmDqFyOot2M0R2pavJPuIQzhx8hH8860n2KtVZRybOaXT+oxka2hvYvm2tXsXcu+5Kp4zZibpuwwqWFG1gYaeIeHd1YRBa6yL1ze+w1G7PPy6aPNSfv7Ab2lJJt59LwbMHz2D4C73q9Zu30hFS/f9JQyoaqll0eYljNwluDKDaXxh/umcM/cUmrvaiKcSeCyLzEA6Yf/uF8jbWF/Btf/+M+3JxB7up3U/iGsk48woGsdPTvkOp0xbiIHB+tpyrnz09+yItPdu02ScQ4on8OUjziE9GGbWyKlkpWfz8v13Ya/dhA8PHSGD1cOsPYfRzjYHN+myMt/D/54U4tuvx1hQniArAhe+HKHdH2ZxgeeTDSXHITsrh1Hb2onW1mFg4RhJchYcqoX5FEgyWJk+L9mHH0LdfU+AbdPyxiJGfusrzC+bxcRhpSypLf/IARLw+Zk3uu+N/7W15WzeUcle33xwXdJ9AeaNnNqn++2V9YtIOk7vJR1Ni8dWvsjCSYeRnz6ElGOzqaGC//fwjWxorX93lnHXJdsX2u0Q9TfLl9HxnmeLoqkkf33hLg4dM4sRu4QSdA9cyM8Y8oEfZUP9Vi66+5csqloPXt/OIPcCrut0n9tNE5Jx0nxBvnjE2fzoU9+idGgR25pqeGTpM/zj1ftZUVvee9CHYzN/xERuPv8qpo/o7tYsb6zke3f/gg0PPcblEQcvJquGWlRmWR9t9oWUS3WaybULQxxf6GFBeYJZ21P84KUI1xwTYtUwDyQ/oVBybSZmFZL1xkY6Y0lcvHhzMhhy1AId1AokGcxyFszHVziURGUjbYtX0lWxjcKxYzh1xrEs3b4R96MEkmNTlJnH5KLeU/p0xLq4/dX7aY1HP3jl1j387hFDC/tMF/Rm+TKeXvNa3+C0PLxTtYEz//BN0n0hbMemIdpOeyrZ+z04NiX5Ixk/bNQuFcxWHl36TO8A9Xh5ZesKfvDPX3L12T9h7PusVPt+OmJdPLnqZX7z75tZsn3Tu2GSjDMycyg/PuVC0gNh/vrCXdS0NnDO3E9xyJhZHDvpMBzX4a43H+GGp/7O8u0bcay+IxAtw2TWmFk0RTp4a+tKXln3BncteoyVdZsZG/CQ8lsYEYfVhRYRr/HRqxob2i14YKqfJ8f7+MyqOF9eEuOXT3XxlwVBXhjtJeXwsc/oYHgs5tpZuItfx+0Z7p0xew7pkyfqgFYgyWAWGlNK1iGzqK/8D7GqGlpef4vw2DGcNuM4/vHKv9jW1fLhqxrHZmrJRIqyh+2sXsobK/njs//g/iVPf/BQ7z1eFTvMLJm8c8qhrkSU1zYt4WcP/o7t7+2ue++PmCY1sQjEunrOZGbf4HJs5oycQn7P80HxVJJV1Rv4f4/eyIraLX3es+Px8dDKl9jYsI2vHnEOx00+nNIhhYR8fbvmbMehJdJGVUsdb21exiPLnuG1TUvoslM7w8RwHA4fM5OrP3sJC8q6Z3E4ctxcOmJdjB82CheXt7eu5Ian/84TK14k4jjdAzHe06uH2T11kGPDzS/fw99fvZ8Mr4+mSAe2ZUEgSCzlEPNABtAQMvd+ZigXSLp0mfDPmQEaM0y+92qEnzzfRUlzgLtnBoiYfHxz37kOQ9MymbmmlXh9CwYWrgfyTj0RT6aeP1IgyaBmBQMMO+1kGh99FjeepP6Jpyk45wwmFY3j09MXctMr9374QDJMtrc28tMHf0c8laSmvZEVFaupaKnH8ezj0hamRXnTdi574DdEk3HKG6tZWrGSplhkz0FnfsAAVcvL+oYKfnjvVSScJFUt9Szfuorqzub3reZcr59VDZVccv+1FD19C2MLyxgztJicUDpe0yJp27THI9R2NlPZWEXVju3UR9q6h6F7fb3er9c0mD5iIq5hsL21vnvGAdfF5/HxevkyHl3yFP9c9Bg1Hc3dIeaxemVRTsKluMXm0G1J1uRZvDzWhxV1aEvEMHwBslMuaR0O88uTZERcHMMgbhn7XsW44KRcnhnjI+IzuOilCOe/EyMt5nL73CDNfnpPjtdv5ZHLDDeL/Lc2kXDAJUVwXDF5Jx6rg/kTZBw0n/S2EQAjgReA0gP+87o2JcHcxDMnPeiOzRjl3x9vIV5bzzunnUvnO2vx5mcx8+E7yZ4/h3e2ruCMm75NVaT9g0/sO8uCnuHOGN0/Y3not4dW7CSkkt3Dxg2reyG8/lguw05CKtV9lBlmd7X1YT+vY3cPkXftXYZfGz2Vi9X9+ffw+4xUknSfn9KcAkwMEskY8VSCxmgX7fFOXMu325/3OvC1pTHOWBUnLeayYajFI1P8zK9IYqYgbhkUdNkMibmkR1x8tkttlskPPp1GVXo/zuDtMZhbk+JHz3WR1+awusjD748IsXGo1e/3lfw+D7+oyGb+vzeRSBnYRoxRV3yXcf/vir1/nGDfbQUWAhWGcXCcqlUhycfGPzyf4WedxqYl60jWt1D74MNkz53FjJLJnHvIqfz22dtwzQ+ZlZanp/vsY7iRYHnB8vX/77a8ez8U3bTeE7jGLn1bH/KaxOOl3bZZ8d51mAyjOxzfMx/frpIW3DsjQMqA49cnKG22ufTFCN0LMYBtQNRn0BYwWJtr0ZJm8lapl+r0fl5OIuXydqGH+2YF+P5LEWZUp/jfp7q4bV6AF0b7SDlu/2wyw2VCzMfUd2pJpcDFJjCqgIKzz9ifYaQuO5H+Nvyzn2b7HfcRWb2FhkeepPj8L5A+ZSJfP/Jcnl75Eisaqz7CiLuP8672QF4NdB/e225m7v4wf67VA3fODvDkRD/Tq1PMqUqS3emwssjD5myLHRkmrWGTFp9BzAOOwcfTlZZyebnUy7haH1ldLhMbU1z6QoT0hMujE/z9Ekpey+TEFTHSajuJY+CYSQo+f4ZmZ9gPNFODfKxCo0sp/NI5YBlEy2vYfvd9uLZDWf5ILjzuK4QMY4CHwUHKhbgL28MG/57g46pjQ/zklDRunRvk5TIfa/IstgcNIlbPgrn2x/c+Gv0G1x4d4rJT07h+YZgE8M1XolzyYoTchAvWvtxDhMmtJgtWt5N0DRxShKeMouiL53347lVRIMngUXjuWaTP6V7Wofbeh2lfvhKAs+edymnTjoZkXI00UDndVUrSgagFbsrtHtZt91xHfBLXEj1/MuW6vFHiYV2Bh2DS5VNr4lz+fISyFnuv74YHDZPProyT1pbCwQU/lHzza4THjNK2VyDJgShQVEDp9y/ASvcT21bPtr/cgh2NkREIc9mp32Vy7oieaWpkoFdN+/vvRw24e1aA2gyTqM8gp9NhenVy705kHoOjt8MhGyI9CwgmGHrSERSce5a2tQJJDmT5nz6Z/DNOAVzq7n+Chv88DcCUonFc9unvku3xda9AKvIBFdvyfIvfHdXdhffd09N4aLL/Q81W1IsBJTGTc9+OYMYcHFL4S/MY85MfaqlyBZIc6KxQkFGXfJfw1DLs9k62/OYPRLZsA+CsOSdz0bFfxmen0P0k+cBMcuCdER6WDu+eWdzei+uYkGnypWUJimti3avYhgxG/fBCsubOUgMrkORgkD5pAmVXXIInK432t1ex5cY/YkdjeC0P3z3ha3xuzqcwErqfJB+Czbv3sT5qceQxOLXc5aiVXSRcA8eIUfDFMyn+8hc1zFuBJAeT/NNPoeT738DwWtTceh81d98PLmSHMvjVGZdw0oT5kIipoeTj4YEFjSZfeKMTJ+GSIk72MYcw5rJLsMJBtY8CSQ6qHc7nZdTFFzL886eT6upi89XX0/TKawCMyCng+s//goWjpyuUpP9ZMKnd4n9e6iTcliJJgvCMsUz83VUES4rUPgokOSgvUjMzGPfLn5J74kKiW7ex7pKf0bF6HQDjho3iD1+6kqNGTVMoSb+G0aiYh4tfjjKsLk6cBMGyAiZffw0Z06aofRRIcjALjChk4g3XkHPUAtoWL2XdD68gWlEFwKTCsdz85Ws4fuwcDIWS9EMYjYxb/OilCKMrosRI4h+Zy6Qbf02O1jpSIIkAhMePYfKfrmfI0UfQ+OzzrP3h5cS21wEwoWAMf/7Kr/nM9IWYidguE4yKfPgwKotYXPZClAmbI8RI4B89nEl/vI7ck45T+yiQRN6VNnEsU/7ye/I+dRJ1jz7OmosuJVZVA8Co3GJuPv8qvnv05wk7dvcM2CIfkuExmNlq8dOnuxhbHiFCgtDUMUz9vz+Qd/JxB9NaBwokkQ9dKY0dxdS//Z7ir55P/RP/YeUF36NrQzkA+elDuPqsH3PNWZcyLBDWNEPyIZIILK/BsdsNLn+qg+LtUaJGjOyFc5j2jz8x5OjD1EYKJJH35y/IZ+LvrmTszy+n5a1FLPvy12ldtBiAkC/AdxZ+ibsuuJHDR07p6cLTrA6y+zNapmHytZUuP3y6nawdUeIBl8Ivn820W24mc+ZUtZECSeSDeTLSGX3J95hx2y048ThLz/8qtf96FDeZwjJNjplwKHd9+yYuPvZ8cixvz4J9It1VkeE1mNhp8bMX4pz7aht0RaAom3G//imT/vAbgiOL1U4D/RygJpABdV7xesg79QTSJoyj/Po/sPpHl9G6fAWjL74Q39AcRuQM56ozL+XoiYfyu//8ldfKl5EyrY++5o8cOCzIdCxOXm9z5uIOspojxLwuOccfTtnll5A1fw6GpWvvQXJdcZDQEuaDjhOL0/jU85T/6S+YwSBlP/geOYfP33lyqWtv4p9vPsLfX76HDQ2VOB5v/y1rLoMiiPyGyZw6OGdZnElbO0k6cbyjRzDyO1+j6Iufwzs0ezB/woNuCXMFkgJpwEs0NrH93oeof/JZsufMpPj8cwmVjgDDwHVdNjds447XH+Letx5jS1MNjuVRxXSAB5HPMJncbHDa6gTzNnbiiUYhfwjDzjmdkm9+mbQJY8Ec9Kc3BZICSYE0UEW3VVP78BN0rlpL9ry55J1yHP7heWAY2I7DpoYK7n/7CR5450nW128l6brg8YKh7poD4kxlGYQdg2mNBidsSDB7UweBaAxjWC5DTz2B4q98nsxZUzG83gPlUyuQFEgKpIEuVl1L80tvEN9eT9qkcWTMmoIvfyiGaeK4LtUtdTy75lUeWfIMi7auoKmrDdc0u6smhdPgOjuZ4DFMCiIGs2scjtwQYWxVJ37XwDtuJENPPYmCs04nfcr4AymIFEgKJAXSYJNq7yBaUY3dGcE/PI9A8XAMz7tddZ3xCGtqNvHcmtd4cd2brNq+iaauVmzX7b7XZFpgKqAGWgBhGvgck+FRl/H1NnO2xZlcFSE36uAflkf4kNnknnw8Q45YgL94OMaBuw0PukBSR7sM3p03I530qRPAcXESiT7hkuYPMa90GvNKp3HhMedT3ljJO1uW81bFatZVrmVbSx1N0U6SyTiuQXf1ZBg9a+IYWhvn47ta6mnnnmbGJJhyyY25DGt1Gd+cZHyTzZgmlzxviHDxSELnTCPjsLlkzZlJcGQxpt+nZlQgiQxApoEZ2HMRmBlMY+aIicwcMZGvOw5NXa3Ut++gvKGS8rotVLbWU93WSFN7E12RNmLxKEnHxnEdTaO3r/0vLpiui+Ua+C0fAcci2BZjSNxkeJtNfsRguGExwgozxJtF+rh8/KUF+MvGEBw3Bn/BMLxDsjFMXSAokEQOMJZpkpeeQ156DlMKx+7896SdIpKIEk3GSaQSpGwbx3Vxtaz6PhdEputiugY+08LnmvhiKfwpF6/dnVuu3wuhAEZ6CDMYUJspkEQObl7LQ2YwncxguhpDZH90dqgJREREgSQiIqJAEhERBZKIiIgCSUREFEgiIiIKJBERUSCJiIgokERERIEkIiKiQBIREQWSiIiIAklERBRIIiIiCiQREVEgiYiIKJBERESBJCIiokASEREFkoiIiAJJPjwDQ40gIoOER01w4IZR0klR0VEdd10cB0dNIjJIuK5rmYaZCntDruMePMeuAumAzSOT+kS754uvfMfnMSzXxVWxJDIo0ggMw0gM9efc88Wyc2o3tG1WIMngZ+Oa9fHWgFpCZFCJ4do3bW8q/+2KHSsTfLNZgSQHSqVkqQ1EBlMYwQ0YnqtJ83fy5W0H1YdXIImIDAxx4AbganA7+XLlQdcAGmUnIjIwwuj67jDioAwjBZKIiMJIgSQiIgojBZKIiMJIgSQiIgojBZKIiMJowNKwbxGRTzaMrgOuURipQhIRURipQhIROejD6GqgS2GkCklERGGkQBIRURgpjBRIIiIKIwWSiIjCSGGkQBIRURgpkEREFEYKIwWSiIjCaBDSc0giIvsuxrvTAXWpOVQhiYgMjDBSdaQKSURkP4TRDaibThWSiMgACKOrFEYKJBERhZECSUREYaQwUiCJiCiMFEgiIgojhZECSUREYaRAEhE56MNIQ7sVSCIiAyKMtOy4AklERGGkQBIRURgpjBRIIiIKIwWSiIjCSGGkQBIR2S/iCiMFkojIQAij6xVGCiQREYWRKJBERGGkMFIgiYgojGQnrRgrIgdrGF0HXKMwUoUkIqIwEgWSiCiMFEYKJBERhZHslu4hicjBFEZaQkIVkoiIwkgUSCKiMFIYKZBERBRGokASEYWRwkiBJCKiMBIFkogc3GF0g8JIgSQisr/D6EbgKqBLzaFAEhHZn2F0JdAJoOpIgSQiojCSvaKZGkTkwAkjBZEqJBGR/RRGv1cYKZBERAZCGP1KYaRAEhFRGIkCaR8Z2uwiCiMZeA62QQ0poLYnlBxtfpFBdwH9T7ofelUYKZAGvTrgLMACXG1+kUGnEYgpjERERERERERERERERERERERERERERERERERERERERERERERERERERERERERERERERERERERERERERERERERERERERERERERERERERERERERERERERERERERERERERERERERERERERERERERERERERERERERERERERERERERERERERERERERERERERERERERERERERERERERERERERERERERERERERERERERERERERERERERERERERERERERERERERGQf/X8hQwRJqKtlKAAAACV0RVh0ZGF0ZTpjcmVhdGUAMjAyMS0wMi0yNVQwODo0ODoyNyswMDowML/qkPoAAAAldEVYdGRhdGU6bW9kaWZ5ADIwMjEtMDItMjVUMDg6NDg6MjcrMDA6MDDOtyhGAAAAAElFTkSuQmCC;" vertex="1" parent="1">
          <mxGeometry width="134.62" height="100" as="geometry" />
        </mxCell>
        <mxCell id="zoAzQkcT-fx47Set7v9W-102" value="Exercice technique API Course intégrant Kafka" style="text;strokeColor=none;fillColor=none;html=1;fontSize=24;fontStyle=1;verticalAlign=middle;align=center;" vertex="1" parent="1">
          <mxGeometry x="370" y="30" width="100" height="40" as="geometry" />
        </mxCell>
      </root>
    </mxGraphModel>
  </diagram>
</mxfile>
